#define count_width 32
#define count_height 16
static char count_bits[] = {
0x00,0x00,0x00,0x00,0x00,0x00,0x00,0x00,0x00,0x00,0x00,0x00,0x00,0x00,0x00,0x00,0x00,0x00,0x00,0x00,0x00,0x00,0x00,0x00,0x3c,0x38,0x30,0x3c,0x66,0x0c,0x38,0x66,0x60,0x06,0x30,0x66,0x60,0x06,0x30,0x66,0x30,0x3e,0x30,0x66,0x18,0x66,0x30,0x66,0x0c,0x66,0x30,0x66,0x06,0x66,0x30,0x66,0x06,0x66,0x30,0x66,0x7e,0x3c,0x30,0x3c,};