#define sound_width 33
#define sound_height 37
static char sound_bits[] = {
 0x00,0x00,0x00,0x00,0x00,0x00,0x00,0x00,0x00,0x00,0x00,0x00,0x00,0x00,0x00,
 0x00,0x00,0x3e,0x00,0x00,0x00,0x00,0xfe,0x00,0x00,0x00,0x00,0xe0,0x01,0x00,
 0x00,0x00,0x80,0x03,0x00,0x00,0x40,0x0e,0x07,0x00,0x00,0x60,0x3e,0x0e,0x00,
 0x00,0x70,0x78,0x1c,0x00,0x00,0x78,0xe0,0x18,0x00,0x00,0x7c,0xc0,0x31,0x00,
 0x00,0x7e,0x8e,0x33,0x00,0x00,0x7f,0x1e,0x33,0x00,0xbc,0x7f,0x38,0x63,0x00,
 0xbc,0x7f,0x70,0x66,0x00,0xbc,0x7f,0x60,0x66,0x00,0xbc,0x7f,0x60,0x66,0x00,
 0xbc,0x7f,0x60,0x66,0x00,0xbc,0x7f,0x60,0x66,0x00,0xbc,0x7f,0x60,0x66,0x00,
 0x28,0x7f,0x70,0x66,0x00,0x94,0x7e,0x38,0x63,0x00,0x00,0x7d,0x1e,0x33,0x00,
 0x00,0x7a,0x8e,0x33,0x00,0x00,0x74,0xc0,0x31,0x00,0x00,0x68,0xe0,0x18,0x00,
 0x00,0x50,0x78,0x1c,0x00,0x00,0x20,0x3e,0x0e,0x00,0x00,0x40,0x0e,0x07,0x00,
 0x00,0x00,0x80,0x03,0x00,0x00,0x00,0xe0,0x01,0x00,0x00,0x00,0xfe,0x00,0x00,
 0x00,0x00,0x3e,0x00,0x00,0x00,0x00,0x00,0x00,0x00,0x00,0x00,0x00,0x00,0x00,
 0x00,0x00,0x00,0x00,0x00};
