#define double-bell_width 174
#define double-bell_height 207
static char double-bell_bits[] = {
   0x00, 0x00, 0x00, 0x00, 0x00, 0x00, 0x00, 0x00, 0x00, 0x00, 0x00, 0x00,
   0x00, 0x00, 0x00, 0x00, 0x00, 0x00, 0x00, 0x00, 0x00, 0xc0, 0x00, 0x00,
   0x00, 0x00, 0x00, 0x00, 0x00, 0x00, 0x00, 0x00, 0x00, 0x00, 0x00, 0x00,
   0x00, 0x00, 0x00, 0x00, 0x00, 0x00, 0x00, 0xc0, 0x00, 0x00, 0x00, 0x00,
   0x00, 0x00, 0x00, 0x00, 0x00, 0x00, 0x00, 0x00, 0x00, 0x00, 0x00, 0x00,
   0x00, 0x00, 0x00, 0x00, 0x00, 0xc0, 0x00, 0x00, 0x00, 0x00, 0x00, 0x00,
   0x00, 0x00, 0x40, 0x00, 0x00, 0x00, 0x00, 0x00, 0x00, 0x00, 0x00, 0x00,
   0x00, 0x00, 0x00, 0xc0, 0x00, 0x00, 0x00, 0x00, 0x00, 0x00, 0x00, 0x80,
   0xbf, 0x1f, 0x00, 0x00, 0x00, 0x00, 0x00, 0x00, 0x00, 0x00, 0x00, 0x00,
   0x00, 0xc0, 0x00, 0x00, 0x00, 0x00, 0x00, 0x00, 0x00, 0x80, 0x23, 0x1f,
   0x00, 0x00, 0x00, 0x00, 0x00, 0x00, 0x00, 0x00, 0x00, 0x00, 0x00, 0xc0,
   0x00, 0x00, 0x00, 0x00, 0x00, 0x00, 0x00, 0x80, 0x83, 0xfb, 0x00, 0x00,
   0x00, 0x00, 0x00, 0x00, 0x00, 0x00, 0x00, 0x00, 0x00, 0xc0, 0x00, 0x00,
   0x00, 0x00, 0x00, 0x00, 0x00, 0x00, 0x23, 0xc5, 0x0f, 0x00, 0x00, 0x00,
   0x00, 0x00, 0x00, 0x00, 0x00, 0x00, 0x00, 0xc0, 0x00, 0x00, 0x00, 0x00,
   0x00, 0x00, 0x00, 0x00, 0x03, 0x00, 0x1f, 0x00, 0x00, 0x00, 0x00, 0x00,
   0x00, 0x00, 0x00, 0x00, 0x00, 0xc0, 0x00, 0x00, 0x00, 0x00, 0x00, 0x00,
   0x00, 0x00, 0x36, 0x01, 0x7e, 0x00, 0x00, 0x00, 0x00, 0x00, 0x00, 0x00,
   0x00, 0x00, 0x00, 0xc0, 0x00, 0x00, 0x00, 0x00, 0x00, 0x00, 0x00, 0x00,
   0x3c, 0x02, 0xe0, 0x03, 0x00, 0x00, 0x00, 0x00, 0x00, 0x00, 0x00, 0x00,
   0x00, 0xc0, 0x00, 0x00, 0x00, 0x00, 0x00, 0x00, 0x00, 0x00, 0x7c, 0x1e,
   0x00, 0x0f, 0x00, 0x00, 0x00, 0x00, 0x00, 0x00, 0x00, 0x00, 0x00, 0xc0,
   0x00, 0x00, 0x00, 0x00, 0x00, 0x00, 0x00, 0x00, 0x7c, 0x0c, 0x00, 0x1e,
   0x00, 0x00, 0x00, 0x00, 0x00, 0x00, 0x00, 0x00, 0x00, 0xc0, 0x00, 0x00,
   0x00, 0x00, 0x00, 0x00, 0x00, 0x00, 0xe0, 0x0d, 0x00, 0xf8, 0x00, 0x00,
   0x00, 0x00, 0x00, 0x00, 0x00, 0x00, 0x00, 0xc0, 0x00, 0x00, 0x00, 0x00,
   0x00, 0x00, 0x00, 0x00, 0xe0, 0x09, 0x40, 0xf4, 0x03, 0x00, 0x00, 0x00,
   0x00, 0x00, 0x00, 0x00, 0x00, 0xc0, 0x00, 0x00, 0x00, 0x00, 0x00, 0x00,
   0x00, 0x00, 0xc0, 0x09, 0x7f, 0xc0, 0x07, 0x00, 0x00, 0x00, 0x00, 0x00,
   0x00, 0x00, 0x00, 0xc0, 0x00, 0x00, 0x00, 0x00, 0x00, 0x00, 0x00, 0x00,
   0x00, 0xf0, 0x81, 0x04, 0x7c, 0x00, 0x00, 0x00, 0x00, 0x00, 0x00, 0x00,
   0x00, 0xc0, 0x00, 0x00, 0x00, 0x00, 0x00, 0x00, 0x00, 0x00, 0x00, 0xf8,
   0x80, 0x00, 0xfc, 0x00, 0x00, 0x00, 0x00, 0x00, 0x00, 0x00, 0x00, 0xc0,
   0x00, 0x00, 0x00, 0x00, 0x00, 0x00, 0x00, 0x00, 0x00, 0x7a, 0x00, 0x07,
   0xc0, 0x01, 0x00, 0x00, 0x00, 0x00, 0x00, 0x00, 0x00, 0xc0, 0x00, 0x00,
   0x00, 0x00, 0x00, 0x00, 0x00, 0x00, 0x00, 0x70, 0x00, 0x0f, 0x80, 0x07,
   0x00, 0x00, 0x00, 0x00, 0x00, 0x00, 0x00, 0xc0, 0x00, 0x00, 0x00, 0x00,
   0x00, 0x00, 0x00, 0x00, 0x00, 0x30, 0x0c, 0x77, 0x00, 0x1e, 0x00, 0x00,
   0x00, 0x00, 0x00, 0x00, 0x00, 0xc0, 0x00, 0x00, 0x00, 0x00, 0x00, 0x00,
   0x00, 0x00, 0x00, 0x70, 0x08, 0x1f, 0x00, 0x3e, 0x00, 0x00, 0x00, 0x00,
   0x00, 0x00, 0x00, 0xc0, 0x00, 0x00, 0x00, 0x00, 0x00, 0x00, 0x00, 0x00,
   0x00, 0x38, 0x08, 0x0a, 0x00, 0xe0, 0x00, 0x00, 0x00, 0x00, 0x00, 0x00,
   0x00, 0xc0, 0x00, 0x00, 0x00, 0x00, 0x00, 0x00, 0x00, 0x00, 0x00, 0x70,
   0x08, 0x1e, 0x00, 0xc0, 0x07, 0x00, 0x00, 0x00, 0x00, 0x00, 0x00, 0xc0,
   0x00, 0x00, 0x00, 0x00, 0x00, 0x00, 0x00, 0x00, 0x00, 0x70, 0x08, 0x2e,
   0x0e, 0xc0, 0x07, 0x00, 0x00, 0x00, 0x00, 0x00, 0x00, 0xc0, 0x00, 0x00,
   0x00, 0x00, 0x00, 0x00, 0x00, 0x00, 0x00, 0x20, 0x08, 0x0e, 0x00, 0xe0,
   0x3f, 0x00, 0x00, 0x00, 0x00, 0x00, 0x00, 0xc0, 0x00, 0x00, 0x00, 0x00,
   0x00, 0x00, 0x00, 0x00, 0x00, 0x30, 0x08, 0x0c, 0x87, 0xe1, 0x7f, 0x00,
   0x00, 0x00, 0x00, 0x00, 0x00, 0xc0, 0x00, 0x00, 0x00, 0x00, 0x00, 0x00,
   0x00, 0x00, 0x00, 0x30, 0x08, 0x1e, 0x00, 0x00, 0xff, 0x01, 0x00, 0x00,
   0x00, 0x00, 0x00, 0xc0, 0x00, 0x00, 0x00, 0x00, 0x00, 0x00, 0x00, 0x00,
   0x00, 0x30, 0x0c, 0x0e, 0x1c, 0x1c, 0xd7, 0x07, 0x00, 0x00, 0x00, 0x00,
   0x00, 0xc0, 0x00, 0x00, 0x00, 0x00, 0x00, 0x00, 0x00, 0x00, 0x00, 0x30,
   0x0c, 0x37, 0x00, 0x1c, 0x46, 0x0f, 0x00, 0x00, 0x00, 0x00, 0x00, 0xc0,
   0x00, 0x00, 0x00, 0x00, 0x00, 0x00, 0x00, 0x00, 0x00, 0x30, 0x0c, 0xe7,
   0x00, 0x08, 0x3c, 0x1f, 0x00, 0x00, 0x00, 0x00, 0x00, 0xc0, 0x00, 0x00,
   0x00, 0x00, 0x00, 0x00, 0x00, 0x00, 0x00, 0x38, 0x0c, 0x57, 0x00, 0xf0,
   0x64, 0x78, 0x00, 0x00, 0x00, 0x00, 0x00, 0xc0, 0x00, 0x00, 0x00, 0x00,
   0x00, 0x00, 0x00, 0x00, 0x00, 0x18, 0x00, 0x07, 0x00, 0xe0, 0x40, 0xe0,
   0x01, 0x00, 0x00, 0x00, 0x00, 0xc0, 0x00, 0x00, 0x00, 0x00, 0x00, 0x00,
   0x00, 0x00, 0x00, 0x18, 0x00, 0x00, 0x01, 0xe0, 0x80, 0xe0, 0x03, 0x00,
   0x00, 0x00, 0x00, 0xc0, 0x00, 0x00, 0x00, 0x00, 0x00, 0x00, 0x00, 0x00,
   0x00, 0x1c, 0xe8, 0x00, 0x01, 0x72, 0xc0, 0x81, 0x0f, 0x00, 0x00, 0x00,
   0x00, 0xc0, 0x00, 0x00, 0x00, 0x00, 0x00, 0x00, 0x00, 0x00, 0x00, 0x1c,
   0x60, 0x03, 0x01, 0xf0, 0xe0, 0x0f, 0x1e, 0x00, 0x00, 0x00, 0x00, 0xc0,
   0x00, 0x00, 0x00, 0x00, 0x00, 0x00, 0x00, 0x00, 0x00, 0x0c, 0xf0, 0x28,
   0x00, 0x3e, 0xc0, 0x1f, 0x7e, 0x00, 0x00, 0x00, 0x00, 0xc0, 0x00, 0x00,
   0x00, 0x00, 0x00, 0x00, 0x00, 0x00, 0x00, 0x0e, 0x70, 0x02, 0xfc, 0x99,
   0x00, 0x20, 0xe3, 0x01, 0x00, 0x00, 0x00, 0xc0, 0x00, 0x00, 0x00, 0x00,
   0x00, 0x00, 0x00, 0x00, 0x00, 0x0e, 0x30, 0x00, 0xfe, 0x98, 0x00, 0x00,
   0xc3, 0x01, 0x00, 0x00, 0x00, 0xc0, 0x00, 0x00, 0x00, 0x00, 0x00, 0x00,
   0x00, 0x00, 0x00, 0x06, 0xd0, 0x80, 0x03, 0x18, 0x00, 0x80, 0x83, 0x0f,
   0x00, 0x00, 0x00, 0xc0, 0x00, 0x00, 0x00, 0x00, 0x00, 0x00, 0x00, 0x00,
   0x00, 0x02, 0x38, 0x40, 0x00, 0x1c, 0x00, 0xf8, 0x03, 0x0f, 0x00, 0x00,
   0x00, 0xc0, 0x00, 0x00, 0x00, 0x00, 0x00, 0x00, 0x00, 0x00, 0x00, 0x03,
   0x18, 0x60, 0xf0, 0x1f, 0x00, 0xfe, 0x01, 0x0e, 0x00, 0x00, 0x00, 0xc0,
   0x00, 0x00, 0x00, 0x00, 0x00, 0x00, 0x00, 0x00, 0x00, 0x03, 0x1c, 0x60,
   0x34, 0x0f, 0x00, 0xff, 0x01, 0x0e, 0x00, 0x00, 0x00, 0xc0, 0x00, 0x00,
   0x00, 0x00, 0x00, 0x00, 0x00, 0x00, 0x80, 0x01, 0x2c, 0xf0, 0x0c, 0x06,
   0xe0, 0x07, 0x7c, 0x18, 0x00, 0x00, 0x00, 0xc0, 0x00, 0x00, 0x00, 0x00,
   0x00, 0x00, 0x00, 0x00, 0x80, 0x01, 0x02, 0xb8, 0x04, 0x06, 0xf8, 0x00,
   0xfc, 0x18, 0x00, 0x00, 0x00, 0xc0, 0x00, 0x00, 0x00, 0x00, 0x00, 0x00,
   0x00, 0x00, 0x80, 0x01, 0x06, 0x1c, 0x0c, 0x02, 0x78, 0x00, 0xff, 0x18,
   0x00, 0x00, 0x00, 0xc0, 0x00, 0x00, 0x00, 0x00, 0x00, 0x00, 0x00, 0x00,
   0xc0, 0x00, 0x09, 0x80, 0x23, 0x1e, 0x1f, 0x1c, 0xc3, 0x3f, 0x00, 0x00,
   0x00, 0xc0, 0x00, 0x00, 0x00, 0x00, 0x00, 0x00, 0x00, 0x00, 0xc0, 0x00,
   0x01, 0xe0, 0x43, 0x1c, 0x0f, 0x07, 0x00, 0x3e, 0x00, 0x00, 0x00, 0xc0,
   0x00, 0x00, 0x00, 0x00, 0x00, 0x00, 0x00, 0x00, 0x40, 0x80, 0xfb, 0x76,
   0xc0, 0xe0, 0x43, 0x00, 0x00, 0x00, 0x00, 0x00, 0x00, 0xc0, 0x00, 0x00,
   0x00, 0x00, 0x00, 0x00, 0x00, 0x00, 0x20, 0xc0, 0x0f, 0x38, 0x00, 0xf0,
   0x00, 0x00, 0x00, 0x00, 0x00, 0x00, 0x00, 0xc0, 0x00, 0x00, 0x00, 0x00,
   0x00, 0x00, 0x00, 0x00, 0x20, 0xc0, 0x07, 0x38, 0xc0, 0xf1, 0x0c, 0x00,
   0x00, 0x00, 0x00, 0x00, 0x00, 0xc0, 0x00, 0x00, 0x00, 0x00, 0x00, 0x00,
   0x00, 0x00, 0x30, 0xe0, 0x03, 0x3f, 0x60, 0x1f, 0x01, 0x00, 0x00, 0x00,
   0x00, 0x00, 0x00, 0xc0, 0x00, 0x00, 0x00, 0x00, 0x00, 0x00, 0x00, 0x00,
   0x30, 0xe0, 0x01, 0x3f, 0x20, 0x9e, 0x00, 0x00, 0x00, 0x00, 0x00, 0x00,
   0x00, 0xc0, 0x00, 0x00, 0x00, 0x00, 0x00, 0x00, 0x00, 0x00, 0x18, 0xe0,
   0x81, 0x1f, 0xf0, 0x67, 0x00, 0x00, 0x00, 0x00, 0x00, 0x00, 0x00, 0xc0,
   0x00, 0x00, 0x00, 0x00, 0x00, 0x00, 0x00, 0x00, 0x1c, 0xf0, 0xd0, 0x07,
   0xf8, 0x19, 0x00, 0x00, 0x00, 0x00, 0x00, 0x00, 0x00, 0xc0, 0x00, 0x00,
   0x00, 0x00, 0x00, 0x00, 0x00, 0x00, 0x0c, 0x70, 0xf0, 0x03, 0xec, 0x0f,
   0x00, 0x00, 0x00, 0x00, 0x00, 0x00, 0x00, 0xc0, 0x00, 0x00, 0x00, 0x00,
   0x00, 0x00, 0x00, 0x00, 0x0c, 0x78, 0xf8, 0x03, 0x1c, 0x07, 0x00, 0x00,
   0x00, 0x00, 0x00, 0x00, 0x00, 0xc0, 0x00, 0x00, 0x00, 0x00, 0x00, 0x00,
   0x00, 0x00, 0x06, 0x1c, 0xf0, 0x00, 0xfc, 0x01, 0x00, 0x00, 0x00, 0x00,
   0x00, 0x00, 0x00, 0xc0, 0x00, 0x00, 0x00, 0x00, 0x00, 0x00, 0x00, 0x00,
   0x02, 0xdc, 0xf3, 0x00, 0xfc, 0x00, 0x00, 0x00, 0x00, 0x00, 0x00, 0x00,
   0x00, 0xc0, 0x00, 0x00, 0x00, 0x00, 0x07, 0x00, 0x00, 0x00, 0x02, 0xdc,
   0xff, 0x00, 0x7c, 0x00, 0x00, 0x00, 0x00, 0x00, 0x00, 0x00, 0x00, 0xc0,
   0x00, 0x00, 0x00, 0x80, 0x0f, 0x00, 0x00, 0x00, 0x03, 0x9e, 0x30, 0x00,
   0x3e, 0x00, 0x00, 0x00, 0x00, 0x00, 0x00, 0x00, 0x00, 0xc0, 0x00, 0x00,
   0x00, 0x80, 0x1f, 0x00, 0x00, 0x80, 0x01, 0x9a, 0x38, 0x00, 0x1f, 0x00,
   0x00, 0x00, 0x00, 0x00, 0x0e, 0x00, 0x00, 0xc0, 0x00, 0x00, 0x00, 0x80,
   0x3d, 0x00, 0x00, 0x80, 0x80, 0xe3, 0x17, 0x80, 0x1d, 0x00, 0x00, 0x00,
   0x00, 0xe0, 0xff, 0x07, 0x00, 0xc0, 0x00, 0x00, 0x00, 0x80, 0x27, 0x00,
   0x00, 0xc0, 0xc0, 0x11, 0x20, 0xe0, 0x07, 0x00, 0x00, 0x00, 0x80, 0x0f,
   0x00, 0x7e, 0x00, 0xc0, 0x00, 0x00, 0x00, 0x80, 0x47, 0x00, 0x00, 0x60,
   0xc0, 0x11, 0x60, 0xe0, 0x03, 0x00, 0x00, 0x00, 0xc0, 0x01, 0x00, 0x7c,
   0x00, 0xc0, 0x00, 0x00, 0x00, 0xc0, 0xc7, 0x03, 0x00, 0x70, 0x00, 0xfc,
   0x67, 0xf8, 0x03, 0x00, 0x00, 0x00, 0xe0, 0x00, 0x00, 0xf0, 0x01, 0xc0,
   0x00, 0x00, 0x00, 0x40, 0xc6, 0x07, 0x00, 0x78, 0x40, 0x22, 0x3f, 0xfc,
   0x01, 0x00, 0x00, 0x00, 0x38, 0x00, 0x00, 0xe0, 0x03, 0xc0, 0x00, 0x00,
   0x00, 0xc0, 0xff, 0x3f, 0x00, 0x38, 0x40, 0x10, 0x30, 0x60, 0x00, 0x00,
   0x00, 0x00, 0x1c, 0xe0, 0x3f, 0xe0, 0x07, 0xc0, 0x00, 0x00, 0x00, 0xc0,
   0xff, 0x7f, 0x02, 0x38, 0x20, 0x18, 0x30, 0x7b, 0x00, 0x00, 0x00, 0x00,
   0x0c, 0xf0, 0xff, 0x83, 0x07, 0xc0, 0x00, 0x00, 0x00, 0x00, 0x00, 0x9f,
   0x2f, 0x18, 0x50, 0x8c, 0x0f, 0x7b, 0x00, 0x00, 0x00, 0x00, 0x02, 0x2f,
   0x00, 0x3e, 0x1f, 0xc0, 0x00, 0x00, 0x00, 0x00, 0x00, 0xe0, 0xff, 0x10,
   0x3c, 0xe0, 0x0f, 0x3f, 0x00, 0x00, 0x00, 0x00, 0xc3, 0x5f, 0x0b, 0x70,
   0x1c, 0xc0, 0x00, 0x00, 0x00, 0x00, 0x00, 0xe0, 0xff, 0x10, 0x3c, 0xe4,
   0x89, 0x3f, 0x00, 0x00, 0x00, 0x00, 0xc3, 0xc9, 0x00, 0x60, 0x3c, 0xc0,
   0x00, 0x00, 0x00, 0x00, 0x00, 0x00, 0x7c, 0x1c, 0x08, 0x06, 0x89, 0x0f,
   0x00, 0x00, 0x00, 0xc0, 0xf0, 0xd8, 0x31, 0xc0, 0x78, 0xc0, 0x00, 0x00,
   0x00, 0x00, 0x00, 0x00, 0xf0, 0x38, 0x0c, 0x07, 0xb9, 0x0f, 0x00, 0x00,
   0x00, 0xc0, 0xd0, 0xd8, 0x01, 0x82, 0x78, 0xc0, 0x00, 0x00, 0x00, 0x00,
   0x00, 0x00, 0xc0, 0x73, 0x04, 0x03, 0x0c, 0x07, 0x00, 0x00, 0x00, 0x60,
   0xd8, 0xce, 0x07, 0x80, 0xf1, 0xc0, 0x00, 0x00, 0x00, 0x00, 0x00, 0x00,
   0x00, 0xef, 0x8f, 0x83, 0xfe, 0x01, 0x00, 0x00, 0x00, 0x00, 0x1c, 0xce,
   0x80, 0x1d, 0xe3, 0xc1, 0x00, 0x00, 0x00, 0x00, 0x00, 0x00, 0x00, 0x7c,
   0x8c, 0x81, 0xfe, 0x01, 0x00, 0x00, 0x00, 0x00, 0x1c, 0xce, 0xc0, 0x5c,
   0xe2, 0xc1, 0x00, 0x00, 0x00, 0x00, 0x00, 0x00, 0x00, 0x7c, 0xe8, 0xe1,
   0xff, 0x00, 0x00, 0x00, 0x00, 0x20, 0x4c, 0xce, 0x11, 0xdc, 0xe2, 0xc1,
   0x00, 0x00, 0x00, 0x00, 0x00, 0x00, 0x80, 0xf3, 0xc3, 0x01, 0xf0, 0x00,
   0x00, 0x00, 0x00, 0x20, 0x64, 0x98, 0x0e, 0x10, 0xe7, 0xc1, 0x00, 0x00,
   0x00, 0x00, 0x00, 0x00, 0xc0, 0x00, 0x0f, 0x03, 0x7f, 0x00, 0x00, 0x00,
   0x00, 0x20, 0x0e, 0x98, 0x10, 0x30, 0xe7, 0xc1, 0x00, 0x00, 0x00, 0x00,
   0x00, 0x00, 0xc0, 0x00, 0x30, 0x06, 0x3f, 0x00, 0x00, 0x00, 0x00, 0x20,
   0x1a, 0x88, 0x12, 0x30, 0xe6, 0xc1, 0x00, 0x00, 0x00, 0x00, 0x00, 0x00,
   0x60, 0x60, 0xc0, 0xf0, 0x0f, 0x00, 0x00, 0x00, 0x00, 0x20, 0x1e, 0x0c,
   0x14, 0x30, 0xc6, 0xc1, 0x00, 0x00, 0x00, 0x00, 0x00, 0x00, 0x70, 0x60,
   0xc0, 0xe1, 0x0f, 0x00, 0x00, 0x00, 0x00, 0x30, 0x1e, 0x18, 0x00, 0x30,
   0xd6, 0xc1, 0x00, 0x00, 0x00, 0x00, 0x00, 0x00, 0x30, 0x30, 0xf8, 0x0f,
   0x0f, 0x00, 0x00, 0x00, 0x00, 0x20, 0x4a, 0x01, 0x00, 0x20, 0xe2, 0xc1,
   0x00, 0x00, 0x00, 0x00, 0x00, 0x00, 0x10, 0x18, 0x0e, 0x38, 0x0c, 0xfc,
   0x00, 0x00, 0x00, 0x20, 0x0c, 0x0e, 0x00, 0x30, 0xc2, 0xc1, 0x00, 0x00,
   0x00, 0x00, 0x00, 0x00, 0x10, 0x18, 0x0e, 0x70, 0xd8, 0xff, 0x07, 0x00,
   0x00, 0x20, 0x08, 0x00, 0x00, 0x30, 0xc2, 0xc1, 0x00, 0x00, 0x00, 0x00,
   0x00, 0x00, 0x08, 0x78, 0x07, 0xf0, 0x71, 0xf1, 0x3f, 0x00, 0x00, 0x00,
   0xfc, 0x00, 0x00, 0x30, 0xe2, 0xc1, 0x00, 0x00, 0x00, 0x00, 0x00, 0x00,
   0x0c, 0x9c, 0x03, 0x70, 0x63, 0xf0, 0xff, 0x01, 0x00, 0x00, 0x1c, 0x00,
   0x03, 0x38, 0xe2, 0xc1, 0x00, 0x00, 0x00, 0x00, 0x00, 0x00, 0x0e, 0xb6,
   0x03, 0x08, 0xc6, 0x47, 0xe2, 0x07, 0x00, 0x40, 0x1e, 0x44, 0x00, 0x18,
   0xf3, 0xc1, 0x00, 0x00, 0x00, 0x00, 0x00, 0x00, 0x0e, 0xbe, 0x01, 0x18,
   0xc6, 0x03, 0x80, 0x0f, 0x00, 0x40, 0xde, 0x1d, 0x00, 0x8c, 0xfb, 0xc1,
   0x00, 0x00, 0x00, 0x00, 0x00, 0x00, 0x02, 0xc7, 0x01, 0x36, 0x8c, 0xff,
   0x03, 0x38, 0x00, 0xc0, 0x38, 0x0e, 0x00, 0xa6, 0xe3, 0xc1, 0x00, 0x00,
   0x00, 0x00, 0x00, 0x00, 0x03, 0xf9, 0x00, 0x0e, 0x1c, 0xf1, 0x1f, 0x70,
   0x00, 0xc0, 0xe0, 0xc1, 0x80, 0xc3, 0xf3, 0xc1, 0x00, 0x00, 0x00, 0x00,
   0x00, 0x00, 0x81, 0xfd, 0x00, 0x02, 0x1c, 0x00, 0x3f, 0x60, 0x00, 0xe0,
   0xe1, 0x41, 0xf6, 0xc0, 0xdb, 0xc1, 0x00, 0x00, 0x00, 0x00, 0x00, 0x80,
   0xc1, 0x7c, 0x00, 0x03, 0x3c, 0x00, 0xf0, 0xc1, 0x00, 0xf0, 0x83, 0x06,
   0xff, 0xc0, 0x79, 0xc0, 0x00, 0x00, 0x00, 0x00, 0x00, 0xc0, 0xc1, 0x7e,
   0x00, 0x87, 0x3f, 0x00, 0xc0, 0x81, 0x00, 0xf0, 0x83, 0xbf, 0x99, 0x81,
   0x01, 0xc0, 0x00, 0x00, 0x00, 0x00, 0x00, 0xf0, 0x40, 0x3e, 0x80, 0x87,
   0x31, 0x00, 0xc0, 0x07, 0x01, 0x38, 0x07, 0x1e, 0x00, 0xc3, 0x0f, 0xc0,
   0x00, 0x00, 0x00, 0x00, 0x00, 0x70, 0x70, 0x1e, 0xc0, 0x81, 0x10, 0x00,
   0x00, 0x1f, 0x03, 0x88, 0x1f, 0x06, 0x80, 0xc3, 0x03, 0xc0, 0x00, 0x00,
   0x00, 0x00, 0x00, 0x70, 0xf8, 0x0e, 0xc0, 0xad, 0x11, 0x7f, 0x00, 0x1e,
   0x03, 0x8c, 0x1f, 0x22, 0xe0, 0xe3, 0x03, 0xc0, 0x00, 0x00, 0x00, 0x00,
   0x00, 0x3c, 0x1c, 0x07, 0xf0, 0xff, 0x0f, 0xf3, 0x03, 0x1c, 0x06, 0xc7,
   0x79, 0x5f, 0x70, 0xfc, 0x01, 0xc0, 0x00, 0x00, 0x00, 0x00, 0x00, 0x18,
   0x4c, 0x07, 0xf0, 0xff, 0x8f, 0xe9, 0x0f, 0x1c, 0x04, 0xe3, 0xf0, 0x1f,
   0x74, 0x7f, 0x00, 0xc0, 0x00, 0x00, 0x00, 0x00, 0x00, 0x18, 0x06, 0x07,
   0xf8, 0x01, 0x8e, 0xbb, 0x3f, 0x3c, 0x84, 0x79, 0xe0, 0xff, 0xfc, 0x0f,
   0x00, 0xc0, 0x00, 0x00, 0x00, 0x00, 0x00, 0x1c, 0xd3, 0x03, 0x3c, 0xe0,
   0xc6, 0x04, 0xf8, 0x78, 0x88, 0x3c, 0xe0, 0x80, 0x7f, 0x00, 0x00, 0xc0,
   0x00, 0x00, 0x00, 0x00, 0x00, 0x0c, 0xe7, 0x01, 0x6c, 0xe6, 0xc7, 0x07,
   0xe3, 0x7f, 0xc8, 0x3e, 0xe0, 0x00, 0x3e, 0x00, 0x00, 0xc0, 0x00, 0x00,
   0x00, 0x00, 0x00, 0x0c, 0xe3, 0x01, 0x7c, 0xfe, 0x47, 0xc7, 0x3d, 0x6e,
   0xc8, 0x1f, 0x70, 0x00, 0x08, 0x00, 0x00, 0xc0, 0x00, 0x00, 0x00, 0x00,
   0x00, 0xc6, 0xe3, 0x00, 0x3e, 0xf2, 0xf1, 0xfb, 0xd9, 0xf3, 0x38, 0x0f,
   0x3c, 0x00, 0x00, 0x00, 0x00, 0xc0, 0x00, 0x00, 0x00, 0x00, 0x00, 0xe2,
   0x76, 0x00, 0x1f, 0xdf, 0x91, 0xbb, 0x39, 0xf3, 0x98, 0x07, 0x1e, 0x00,
   0x00, 0x00, 0x00, 0xc0, 0x00, 0x00, 0x00, 0x00, 0x00, 0x62, 0x76, 0x88,
   0x9f, 0xdf, 0x91, 0x9b, 0x5d, 0xf3, 0x98, 0x07, 0x1e, 0x00, 0x00, 0x00,
   0x00, 0xc0, 0x00, 0x00, 0x00, 0x00, 0x00, 0xe3, 0x3d, 0x80, 0x4d, 0xe7,
   0xf8, 0xff, 0xa0, 0xe1, 0x81, 0x03, 0x07, 0x00, 0x00, 0x00, 0x00, 0xc0,
   0x00, 0x00, 0x00, 0x00, 0x80, 0x13, 0x3d, 0x80, 0xcd, 0xe3, 0xf8, 0x4b,
   0xb0, 0x05, 0x8b, 0x83, 0x03, 0x00, 0x00, 0x00, 0x00, 0xc0, 0x00, 0x00,
   0x00, 0x00, 0x80, 0x11, 0x1c, 0x80, 0xfe, 0x71, 0x7c, 0xc3, 0x0d, 0x22,
   0x06, 0xc3, 0x03, 0x00, 0x00, 0x00, 0x00, 0xc0, 0x00, 0x00, 0x00, 0x00,
   0xc0, 0xf8, 0x0f, 0xf0, 0xe3, 0x3c, 0x3e, 0xdc, 0x7c, 0xf3, 0xf8, 0xff,
   0x01, 0x00, 0x00, 0x00, 0x00, 0xc0, 0x00, 0x00, 0x00, 0x00, 0x40, 0xf8,
   0x0f, 0xf0, 0x73, 0x3e, 0x3e, 0xdc, 0xbc, 0xf6, 0x78, 0xfc, 0x01, 0x00,
   0x00, 0x00, 0x00, 0xc0, 0x00, 0x00, 0x00, 0x00, 0x40, 0xf4, 0x0f, 0xf8,
   0x31, 0x1e, 0x1e, 0x7f, 0x3e, 0xc2, 0x39, 0xf8, 0x00, 0x00, 0x00, 0x00,
   0x00, 0xc0, 0x00, 0x00, 0x00, 0x00, 0x20, 0xfc, 0x03, 0xf8, 0xbd, 0x19,
   0x0f, 0x7f, 0x3e, 0x8e, 0x19, 0x38, 0x00, 0x00, 0x00, 0x00, 0x00, 0xc0,
   0x00, 0x00, 0x00, 0x00, 0x20, 0xf6, 0x01, 0xf6, 0xf4, 0x9d, 0x8c, 0x7f,
   0xff, 0x92, 0x31, 0x38, 0x00, 0x00, 0x00, 0x00, 0x00, 0xc0, 0x00, 0x00,
   0x00, 0x00, 0x30, 0xee, 0x01, 0x7e, 0xfc, 0x8c, 0x8e, 0xf1, 0x47, 0x9e,
   0x31, 0x38, 0x00, 0x00, 0x00, 0x00, 0x00, 0xc0, 0x00, 0x00, 0x00, 0x00,
   0x00, 0xf3, 0x01, 0x7e, 0x3a, 0xfe, 0xef, 0x03, 0x7e, 0xcc, 0x79, 0x3c,
   0x00, 0x00, 0x00, 0x00, 0x00, 0xc0, 0x00, 0x00, 0x00, 0x00, 0x80, 0xff,
   0x00, 0x7f, 0x3f, 0x9e, 0xe1, 0x0f, 0x42, 0xfc, 0xfc, 0xff, 0x01, 0x00,
   0x00, 0x00, 0x00, 0xc0, 0x00, 0x00, 0x00, 0x00, 0x80, 0xfb, 0x00, 0x3f,
   0x3f, 0x9f, 0xe1, 0x3f, 0x43, 0xfc, 0xfc, 0xff, 0x01, 0x00, 0x00, 0x00,
   0x00, 0xc0, 0x00, 0x00, 0x00, 0x00, 0xc2, 0x7f, 0x80, 0x9b, 0x9d, 0xe3,
   0x7f, 0xb0, 0xfb, 0x17, 0xc6, 0x07, 0x00, 0x00, 0x00, 0x00, 0x00, 0xc0,
   0x00, 0x00, 0x00, 0x00, 0xc2, 0x3d, 0xc0, 0x89, 0x9d, 0xc3, 0x7f, 0x80,
   0xcb, 0x3f, 0xc7, 0x03, 0x00, 0x00, 0x00, 0x00, 0x00, 0xc0, 0x00, 0x00,
   0x00, 0x00, 0xc3, 0x3d, 0xc0, 0x4f, 0xff, 0xc3, 0x3f, 0xfe, 0x49, 0xc8,
   0xc7, 0x01, 0x00, 0x00, 0x00, 0x00, 0x00, 0xc0, 0x00, 0x00, 0x00, 0x80,
   0xe1, 0x1d, 0xf0, 0xe7, 0xe3, 0xe5, 0xec, 0xc7, 0xbf, 0x91, 0xe1, 0x00,
   0x00, 0x00, 0x00, 0x00, 0x00, 0xc0, 0x00, 0x00, 0x00, 0x80, 0xf0, 0x0f,
   0xf0, 0x67, 0xe2, 0xe4, 0xfc, 0x07, 0x9f, 0xd9, 0x71, 0x00, 0x00, 0x00,
   0x00, 0x00, 0x00, 0xc0, 0x00, 0x00, 0x00, 0x80, 0x70, 0x0f, 0xd0, 0x67,
   0xc2, 0xe6, 0xfe, 0x07, 0xbe, 0xd9, 0x71, 0x00, 0x00, 0x00, 0x00, 0x00,
   0x00, 0xc0, 0x00, 0x00, 0x00, 0x00, 0xf8, 0x07, 0xb8, 0x7b, 0x71, 0x7e,
   0x9c, 0x7f, 0xc4, 0xee, 0x70, 0x00, 0x00, 0x00, 0x00, 0x00, 0x00, 0xc0,
   0x00, 0x00, 0x00, 0x40, 0xf8, 0x03, 0x1c, 0xf9, 0x38, 0x1f, 0xcc, 0xea,
   0x43, 0xfc, 0x18, 0x00, 0x00, 0x00, 0x00, 0x00, 0x00, 0xc0, 0x00, 0x00,
   0x00, 0x60, 0xf8, 0x03, 0xdc, 0xbf, 0x38, 0x1f, 0xce, 0x52, 0xc2, 0xfe,
   0x1c, 0x00, 0x00, 0x00, 0x00, 0x00, 0x00, 0xc0, 0x00, 0x00, 0x00, 0x30,
   0xec, 0x01, 0x5e, 0x78, 0x9c, 0x8e, 0x3f, 0xf7, 0x27, 0x22, 0x0e, 0x00,
   0x00, 0x00, 0x00, 0x00, 0x00, 0xc0, 0x00, 0x00, 0x00, 0x10, 0xfe, 0x01,
   0x4e, 0x7c, 0xdc, 0xce, 0x37, 0xe7, 0x3f, 0x22, 0x07, 0x00, 0x00, 0x00,
   0x00, 0x00, 0x00, 0xc0, 0x00, 0x00, 0x00, 0x08, 0xee, 0x00, 0x6f, 0x3e,
   0x4e, 0x86, 0xb1, 0x07, 0x30, 0x22, 0x03, 0x00, 0x00, 0x00, 0x00, 0x00,
   0x00, 0xc0, 0x00, 0x00, 0x00, 0x8c, 0x7b, 0x82, 0xfd, 0x17, 0x3e, 0x83,
   0xf9, 0xc7, 0x07, 0xc2, 0x00, 0x00, 0x00, 0x00, 0x00, 0x00, 0x00, 0xc0,
   0x00, 0x00, 0x00, 0x8c, 0x7b, 0x80, 0x9d, 0x1f, 0xbf, 0x83, 0xb9, 0x83,
   0x47, 0xc1, 0x00, 0x00, 0x00, 0x00, 0x00, 0x00, 0x00, 0xc0, 0x00, 0x00,
   0x00, 0x86, 0x3b, 0xc0, 0x9e, 0x8f, 0xbf, 0xe1, 0x9d, 0x81, 0xfb, 0xff,
   0x00, 0x00, 0x00, 0x00, 0x00, 0x00, 0x00, 0xc0, 0x00, 0x00, 0x00, 0xc3,
   0x3c, 0x60, 0x8c, 0x87, 0xdb, 0xe1, 0x8f, 0x63, 0x07, 0xfe, 0x00, 0x00,
   0x00, 0x00, 0x00, 0x00, 0x00, 0xc0, 0x00, 0x00, 0x00, 0xe1, 0x1f, 0x60,
   0x9d, 0x84, 0xcf, 0x61, 0x8e, 0xf3, 0x37, 0xcf, 0x00, 0x00, 0x00, 0x00,
   0x00, 0x00, 0x00, 0xc0, 0x00, 0x00, 0x00, 0xe1, 0x1f, 0x30, 0x9c, 0x84,
   0xc7, 0x71, 0x0e, 0xf9, 0xe3, 0x4f, 0x00, 0x00, 0x00, 0x00, 0x00, 0x00,
   0x00, 0xc0, 0x00, 0x00, 0x00, 0x10, 0x0f, 0x58, 0x1e, 0xe3, 0x63, 0xd8,
   0xe5, 0x9f, 0x10, 0x3e, 0x00, 0x00, 0x00, 0x00, 0x00, 0x00, 0x00, 0xc0,
   0x00, 0x00, 0x40, 0xf8, 0x07, 0x5c, 0x33, 0x7c, 0xf2, 0xdd, 0xc9, 0x84,
   0x31, 0x1e, 0x00, 0x00, 0x00, 0x00, 0x00, 0x00, 0x00, 0xc0, 0x00, 0x00,
   0xc0, 0x9c, 0x07, 0x6c, 0xe1, 0x7c, 0xf3, 0x8d, 0x49, 0x04, 0x23, 0x1e,
   0x00, 0x00, 0x00, 0x00, 0x00, 0x00, 0x00, 0xc0, 0x00, 0x00, 0xe0, 0xef,
   0x03, 0xe4, 0x0f, 0x98, 0xb8, 0xff, 0x6f, 0x2f, 0xf2, 0x0f, 0x00, 0x00,
   0x00, 0x00, 0x00, 0x00, 0x00, 0xc0, 0x00, 0x00, 0xc0, 0xcf, 0x01, 0x66,
   0x0f, 0xfc, 0xb8, 0xff, 0x2e, 0x27, 0xc0, 0x07, 0x00, 0x00, 0x00, 0x00,
   0x00, 0x00, 0x00, 0xc0, 0x00, 0x00, 0x80, 0xe1, 0x00, 0x33, 0xac, 0xf8,
   0xb0, 0x47, 0x16, 0x67, 0xfc, 0x04, 0x00, 0x00, 0x00, 0x00, 0x00, 0x00,
   0x00, 0xc0, 0x00, 0x00, 0xf0, 0x8f, 0x80, 0x1d, 0xfe, 0x7f, 0xf0, 0xe7,
   0x83, 0x33, 0xc7, 0x03, 0x00, 0x00, 0x00, 0x00, 0x00, 0x00, 0x00, 0xc0,
   0x00, 0x00, 0xf0, 0x85, 0xc1, 0x1d, 0xce, 0x1f, 0xf0, 0x27, 0x8b, 0x31,
   0xc5, 0x01, 0x00, 0x00, 0x00, 0x00, 0x00, 0x00, 0x00, 0xc0, 0x00, 0x00,
   0x70, 0x80, 0xc3, 0x1d, 0x0f, 0x01, 0xfc, 0x03, 0xc9, 0x39, 0xc5, 0x00,
   0x00, 0x00, 0x00, 0x00, 0x00, 0x00, 0x00, 0xc0, 0x00, 0x00, 0xf4, 0xfe,
   0x7f, 0x8e, 0x01, 0x00, 0xce, 0x90, 0xe7, 0x98, 0x3f, 0x00, 0x00, 0x00,
   0x00, 0x00, 0x00, 0x00, 0x00, 0xc0, 0x00, 0x00, 0x06, 0x31, 0x04, 0xc6,
   0x01, 0x00, 0xc2, 0xd8, 0xf2, 0xf8, 0x1d, 0x00, 0x00, 0x00, 0x00, 0x00,
   0x00, 0x00, 0x00, 0xc0, 0x00, 0x00, 0xf2, 0xfc, 0x90, 0xe3, 0x00, 0x00,
   0x66, 0x76, 0x78, 0x8c, 0x0c, 0x00, 0x00, 0x00, 0x00, 0x00, 0x00, 0x00,
   0x00, 0xc0, 0x00, 0x00, 0x30, 0xfe, 0x81, 0xe3, 0x00, 0x00, 0x7e, 0x76,
   0x38, 0x96, 0x04, 0x00, 0x00, 0x00, 0x00, 0x00, 0x00, 0x00, 0x00, 0xc0,
   0x00, 0x00, 0x31, 0xfe, 0x8b, 0xf3, 0x02, 0x00, 0x3c, 0x3a, 0x38, 0xb7,
   0x07, 0x00, 0x00, 0x00, 0x00, 0x00, 0x00, 0x00, 0x00, 0xc0, 0x00, 0x80,
   0xf1, 0x87, 0xc3, 0xf9, 0x02, 0x00, 0x00, 0x9f, 0x3e, 0xcb, 0x03, 0x00,
   0x00, 0x00, 0x00, 0x00, 0x00, 0x00, 0x00, 0xc0, 0x00, 0x80, 0xa9, 0x07,
   0xc6, 0xec, 0x02, 0x00, 0x80, 0xdb, 0xe6, 0xa3, 0x03, 0x00, 0x00, 0x00,
   0x00, 0x00, 0x00, 0x00, 0x00, 0xc0, 0x00, 0xc0, 0x8c, 0x03, 0x56, 0xec,
   0x06, 0x00, 0x80, 0x5b, 0x7e, 0xb2, 0x01, 0x00, 0x00, 0x00, 0x00, 0x00,
   0x00, 0x00, 0x00, 0xc0, 0x00, 0x60, 0xee, 0x01, 0x3b, 0xc0, 0x0f, 0x00,
   0x60, 0x2e, 0x7f, 0xf8, 0x00, 0x00, 0x00, 0x00, 0x00, 0x00, 0x00, 0x00,
   0x00, 0xc0, 0x00, 0x60, 0xee, 0x81, 0x3b, 0xc2, 0x0f, 0x00, 0x38, 0x06,
   0x27, 0x78, 0x00, 0x00, 0x00, 0x00, 0x00, 0x00, 0x00, 0x00, 0x00, 0xc0,
   0x00, 0x20, 0xee, 0x80, 0x39, 0x82, 0x1d, 0x00, 0x80, 0x97, 0x23, 0x7f,
   0x00, 0x00, 0x00, 0x00, 0x00, 0x00, 0x00, 0x00, 0x00, 0xc0, 0x00, 0x20,
   0x7f, 0xc0, 0xb8, 0x01, 0x7e, 0x80, 0x79, 0xcb, 0x11, 0x3c, 0x00, 0x00,
   0x00, 0x00, 0x00, 0x00, 0x00, 0x00, 0x00, 0xc0, 0x00, 0x10, 0x7b, 0xc0,
   0x9c, 0x01, 0xf6, 0x80, 0xfc, 0xc9, 0xf1, 0x1f, 0x00, 0x00, 0x00, 0x00,
   0x00, 0x00, 0x00, 0x00, 0x00, 0xc0, 0x00, 0x98, 0x39, 0x60, 0x9c, 0x01,
   0xde, 0x7f, 0xfe, 0xe5, 0x98, 0x1f, 0x00, 0x00, 0x00, 0x00, 0x00, 0x00,
   0x00, 0x00, 0x00, 0xc0, 0x00, 0x98, 0x3d, 0x70, 0xde, 0x00, 0x30, 0x3e,
   0xbf, 0xe3, 0xce, 0x0f, 0x00, 0x00, 0x00, 0x00, 0x00, 0x00, 0x00, 0x00,
   0x00, 0xc0, 0x00, 0xd8, 0x0f, 0x70, 0xde, 0x00, 0x40, 0x9c, 0x9f, 0x73,
   0x6e, 0x07, 0x00, 0x00, 0x00, 0x00, 0x00, 0x00, 0x00, 0x00, 0x00, 0xc0,
   0x00, 0xcc, 0x0f, 0x30, 0xce, 0x00, 0x00, 0x8c, 0xcf, 0x5f, 0xee, 0x07,
   0x00, 0x00, 0x00, 0x00, 0x00, 0x00, 0x00, 0x00, 0x00, 0xc0, 0x00, 0xcc,
   0x0f, 0x38, 0xde, 0x00, 0xf0, 0x87, 0x01, 0xad, 0x63, 0x03, 0x00, 0x00,
   0x00, 0x00, 0x00, 0x00, 0x00, 0x00, 0x00, 0xc0, 0x00, 0xec, 0x0e, 0x3c,
   0xd9, 0x01, 0x80, 0xc7, 0x20, 0x7f, 0x6e, 0x01, 0x00, 0x00, 0x00, 0x00,
   0x00, 0x00, 0x00, 0x00, 0x00, 0xc0, 0x00, 0xe4, 0x0e, 0x3c, 0xd9, 0x01,
   0x00, 0xe3, 0xa0, 0x07, 0xfe, 0x00, 0x00, 0x00, 0x00, 0x00, 0x00, 0x00,
   0x00, 0x00, 0x00, 0xc0, 0x00, 0x66, 0x07, 0x9c, 0xb8, 0x03, 0xc0, 0x18,
   0xa0, 0x67, 0xfc, 0x00, 0x00, 0x00, 0x00, 0x00, 0x00, 0x00, 0x00, 0x00,
   0x00, 0xc0, 0x00, 0x66, 0x07, 0x9c, 0x38, 0x07, 0xf0, 0x18, 0xe0, 0x27,
   0xff, 0x00, 0x00, 0x00, 0x00, 0x00, 0x00, 0x00, 0x00, 0x00, 0x00, 0xc0,
   0x00, 0xe6, 0x07, 0x9e, 0x30, 0xfe, 0x3f, 0x04, 0x60, 0x23, 0x7b, 0x00,
   0x00, 0x00, 0x00, 0x00, 0x00, 0x00, 0x00, 0x00, 0x00, 0xc0, 0x00, 0xf6,
   0x03, 0x8e, 0xe0, 0x01, 0x80, 0x03, 0x60, 0xf8, 0x1f, 0x00, 0x00, 0x00,
   0x00, 0x00, 0x00, 0x00, 0x00, 0x00, 0x00, 0xc0, 0x00, 0xe6, 0x01, 0x8e,
   0xc0, 0x03, 0xc0, 0x01, 0x60, 0xfe, 0x1f, 0x00, 0x00, 0x00, 0x00, 0x00,
   0x00, 0x00, 0x00, 0x00, 0x00, 0xc0, 0x00, 0xe6, 0x01, 0x9f, 0xc0, 0x03,
   0xe0, 0x00, 0x60, 0xfe, 0x0e, 0x00, 0x00, 0x00, 0x00, 0x00, 0x00, 0x00,
   0x00, 0x00, 0x00, 0xc0, 0x00, 0xf6, 0x01, 0x8f, 0x00, 0xfc, 0x1f, 0x00,
   0xf8, 0x01, 0x0d, 0x00, 0x00, 0x00, 0x00, 0x00, 0x00, 0x00, 0x00, 0x00,
   0x00, 0xc0, 0x00, 0xc6, 0x01, 0x9f, 0x00, 0x00, 0x00, 0x00, 0x9c, 0xe3,
   0x03, 0x00, 0x00, 0x00, 0x00, 0x00, 0x00, 0x00, 0x00, 0x00, 0x00, 0xc0,
   0x00, 0xde, 0x03, 0x9f, 0x00, 0x00, 0x00, 0x00, 0x8c, 0xfe, 0x03, 0x00,
   0x00, 0x00, 0x00, 0x00, 0x00, 0x00, 0x00, 0x00, 0x00, 0xc0, 0x00, 0xfe,
   0x01, 0xbf, 0x01, 0x00, 0x00, 0x00, 0xc6, 0x7f, 0x01, 0x00, 0x00, 0x00,
   0x00, 0x00, 0x00, 0x00, 0x00, 0x00, 0x00, 0xc0, 0x00, 0xee, 0x01, 0x3f,
   0x01, 0x00, 0x00, 0x00, 0xc3, 0x39, 0x01, 0x00, 0x00, 0x00, 0x00, 0x00,
   0x00, 0x00, 0x00, 0x00, 0x00, 0xc0, 0x00, 0x4e, 0x07, 0x7f, 0x03, 0x00,
   0x00, 0x80, 0xc3, 0x99, 0x01, 0x00, 0x00, 0x00, 0x00, 0x00, 0x00, 0x00,
   0x00, 0x00, 0x00, 0xc0, 0x00, 0x36, 0x07, 0x7e, 0x04, 0x00, 0x00, 0x80,
   0xe0, 0x66, 0x00, 0x00, 0x00, 0x00, 0x00, 0x00, 0x00, 0x00, 0x00, 0x00,
   0x00, 0xc0, 0x00, 0xb6, 0x03, 0x7e, 0x0c, 0x00, 0x00, 0xc0, 0x70, 0x62,
   0x00, 0x00, 0x00, 0x00, 0x00, 0x00, 0x00, 0x00, 0x00, 0x00, 0x00, 0xc0,
   0x00, 0x1c, 0x07, 0xec, 0x18, 0x00, 0x00, 0x70, 0x3c, 0x31, 0x00, 0x00,
   0x00, 0x00, 0x00, 0x00, 0x00, 0x00, 0x00, 0x00, 0x00, 0xc0, 0x00, 0x64,
   0x0e, 0xf8, 0x21, 0x00, 0x00, 0x38, 0xbe, 0x19, 0x00, 0x00, 0x00, 0x00,
   0x00, 0x00, 0x00, 0x00, 0x00, 0x00, 0x00, 0xc0, 0x00, 0x5c, 0x1c, 0x98,
   0xc3, 0x01, 0x00, 0x8c, 0x8f, 0x0c, 0x00, 0x00, 0x00, 0x00, 0x00, 0x00,
   0x00, 0x00, 0x00, 0x00, 0x00, 0xc0, 0x00, 0x1c, 0x18, 0x90, 0x87, 0x03,
   0x00, 0x84, 0x07, 0x06, 0x00, 0x00, 0x00, 0x00, 0x00, 0x00, 0x00, 0x00,
   0x00, 0x00, 0x00, 0xc0, 0x00, 0x38, 0x71, 0xe0, 0x18, 0x1c, 0x80, 0xff,
   0x01, 0x03, 0x00, 0x00, 0x00, 0x00, 0x00, 0x00, 0x00, 0x00, 0x00, 0x00,
   0x00, 0xc0, 0x00, 0x70, 0xf1, 0xc0, 0x73, 0xe0, 0xf3, 0x7f, 0xcc, 0x01,
   0x00, 0x00, 0x00, 0x00, 0x00, 0x00, 0x00, 0x00, 0x00, 0x00, 0x00, 0xc0,
   0x00, 0xf0, 0xf0, 0x80, 0xff, 0x80, 0xff, 0x1f, 0xc0, 0x00, 0x00, 0x00,
   0x00, 0x00, 0x00, 0x00, 0x00, 0x00, 0x00, 0x00, 0x00, 0xc0, 0x00, 0xc0,
   0xc7, 0x03, 0xdf, 0x0f, 0x00, 0x00, 0x38, 0x00, 0x00, 0x00, 0x00, 0x00,
   0x00, 0x00, 0x00, 0x00, 0x00, 0x00, 0x00, 0xc0, 0x00, 0xc0, 0x9e, 0x07,
   0xfc, 0x3f, 0x00, 0x00, 0x3c, 0x00, 0x00, 0x00, 0x00, 0x00, 0x00, 0x00,
   0x00, 0x00, 0x00, 0x00, 0x00, 0xc0, 0x00, 0x80, 0x8f, 0x0f, 0xf0, 0xf1,
   0x01, 0x80, 0x1f, 0x00, 0x00, 0x00, 0x00, 0x00, 0x00, 0x00, 0x00, 0x00,
   0x00, 0x00, 0x00, 0xc0, 0x00, 0x00, 0xfe, 0x1e, 0x80, 0x5f, 0xfe, 0xff,
   0x03, 0x00, 0x00, 0x00, 0x00, 0x00, 0x00, 0x00, 0x00, 0x00, 0x00, 0x00,
   0x00, 0xc0, 0x00, 0x00, 0x7c, 0x3d, 0x00, 0x5c, 0xfc, 0xff, 0x03, 0x00,
   0x00, 0x00, 0x00, 0x00, 0x00, 0x00, 0x00, 0x00, 0x00, 0x00, 0x00, 0xc0,
   0x00, 0x00, 0x78, 0x3b, 0x00, 0x90, 0xf1, 0xff, 0x03, 0x00, 0x00, 0x00,
   0x00, 0x00, 0x00, 0x00, 0x00, 0x00, 0x00, 0x00, 0x00, 0xc0, 0x00, 0x00,
   0xe0, 0xff, 0x01, 0xf8, 0x1f, 0x70, 0x00, 0x00, 0x00, 0x00, 0x00, 0x00,
   0x00, 0x00, 0x00, 0x00, 0x00, 0x00, 0x00, 0xc0, 0x00, 0x00, 0x80, 0xc7,
   0x1f, 0x10, 0x00, 0x18, 0x00, 0x00, 0x00, 0x00, 0x00, 0x00, 0x00, 0x00,
   0x00, 0x00, 0x00, 0x00, 0x00, 0xc0, 0x00, 0x00, 0x00, 0x8f, 0x3f, 0x00,
   0x00, 0x0f, 0x00, 0x00, 0x00, 0x00, 0x00, 0x00, 0x00, 0x00, 0x00, 0x00,
   0x00, 0x00, 0x00, 0xc0, 0x00, 0x00, 0x00, 0xf8, 0xe5, 0xff, 0xff, 0x01,
   0x00, 0x00, 0x00, 0x00, 0x00, 0x00, 0x00, 0x00, 0x00, 0x00, 0x00, 0x00,
   0x00, 0xc0, 0x00, 0x00, 0x00, 0xf0, 0x87, 0xff, 0xff, 0x00, 0x00, 0x00,
   0x00, 0x00, 0x00, 0x00, 0x00, 0x00, 0x00, 0x00, 0x00, 0x00, 0x00, 0xc0,
   0x00, 0x00, 0x00, 0x80, 0xa7, 0xfb, 0x1f, 0x00, 0x00, 0x00, 0x00, 0x00,
   0x00, 0x00, 0x00, 0x00, 0x00, 0x00, 0x00, 0x00, 0x00, 0xc0, 0x00, 0x00,
   0x00, 0x00, 0xe0, 0x79, 0x00, 0x00, 0x00, 0x00, 0x00, 0x00, 0x00, 0x00,
   0x00, 0x00, 0x00, 0x00, 0x00, 0x00, 0x00, 0xc0, 0x00, 0x00, 0x00, 0x00,
   0x00, 0x00, 0x00, 0x00, 0x00, 0x00, 0x00, 0x00, 0x00, 0x00, 0x00, 0x00,
   0x00, 0x00, 0x00, 0x00, 0x00, 0xc0, 0x00, 0x00, 0x00, 0x00, 0x00, 0x00,
   0x00, 0x00, 0x00, 0x00, 0x00, 0x00, 0x00, 0x00, 0x00, 0x00, 0x00, 0x00,
   0x00, 0x00, 0x00, 0xc0, 0x00, 0x00, 0x00, 0x00, 0x00, 0x00, 0x00, 0x00,
   0x00, 0x00, 0x00, 0x00, 0x00, 0x00, 0x00, 0x00, 0x00, 0x00, 0x00, 0x00,
   0x00, 0xc0, 0x00, 0x00, 0x00, 0x00, 0x00, 0x00, 0x00, 0x00, 0x00, 0x00,
   0x00, 0x00, 0x00, 0x00, 0x00, 0x00, 0x00, 0x00, 0x00, 0x00, 0x00, 0xc0,
   0x00, 0x00, 0x00, 0x00, 0x00, 0x00, 0x00, 0x00, 0x00, 0x00, 0x00, 0x00,
   0x00, 0x00, 0x00, 0x00, 0x00, 0x00, 0x00, 0x00, 0x00, 0xc0, 0x00, 0x00,
   0x00, 0x00, 0x00, 0x00, 0x00, 0x00, 0x00, 0x00, 0x00, 0x00, 0x00, 0x00,
   0x00, 0x00, 0x00, 0x00, 0x00, 0x00, 0x00, 0xc0, 0x00, 0x00, 0x00, 0x00,
   0x00, 0x00, 0x00, 0x00, 0x00, 0x00, 0x00, 0x00, 0x00, 0x00, 0x00, 0x00,
   0x00, 0x00, 0x00, 0x00, 0x00, 0xc0};
