#define euphonium_width 117
#define euphonium_height 161
static char euphonium_bits[] = {
   0x00, 0x00, 0x00, 0x00, 0x00, 0x00, 0x00, 0x00, 0x00, 0x00, 0x00, 0x00,
   0x00, 0x00, 0x00, 0x00, 0x00, 0x00, 0x00, 0x00, 0x00, 0x00, 0x00, 0x00,
   0x00, 0x00, 0x00, 0x00, 0x00, 0x00, 0x00, 0x00, 0x00, 0x00, 0x00, 0x00,
   0x00, 0x00, 0x00, 0x00, 0x00, 0x00, 0x00, 0x00, 0x00, 0x00, 0x00, 0x00,
   0x00, 0x00, 0x00, 0x00, 0x00, 0x00, 0x00, 0x00, 0x00, 0x00, 0x00, 0x00,
   0x00, 0x00, 0x00, 0x00, 0x00, 0x00, 0x00, 0x00, 0x00, 0x00, 0x00, 0x00,
   0x00, 0x00, 0x00, 0x00, 0x00, 0x00, 0x00, 0x00, 0x00, 0xf0, 0x01, 0x00,
   0x00, 0x00, 0x00, 0x00, 0x00, 0x00, 0x00, 0x00, 0x00, 0x00, 0x00, 0x00,
   0x1e, 0x03, 0x00, 0x00, 0x00, 0x00, 0x00, 0x00, 0x00, 0x00, 0x00, 0x00,
   0x00, 0x00, 0x00, 0x0e, 0x03, 0x00, 0x00, 0x00, 0x00, 0x00, 0x00, 0x00,
   0x00, 0x00, 0x00, 0x00, 0x00, 0x80, 0x03, 0x03, 0x00, 0x00, 0x00, 0x00,
   0x00, 0x00, 0x00, 0x00, 0x00, 0x00, 0x00, 0x00, 0x70, 0x00, 0x03, 0x00,
   0x00, 0x00, 0x00, 0x00, 0x00, 0x00, 0x00, 0x00, 0x00, 0x00, 0x00, 0x1c,
   0x80, 0x03, 0x00, 0x00, 0x00, 0x00, 0x00, 0x00, 0x00, 0x00, 0x00, 0x00,
   0x00, 0x00, 0x0e, 0x90, 0x01, 0x00, 0x00, 0x00, 0x00, 0x00, 0x00, 0x00,
   0x00, 0x00, 0x00, 0x00, 0xc0, 0x01, 0xf0, 0x00, 0x00, 0x00, 0x00, 0x00,
   0x00, 0x00, 0x00, 0x00, 0x00, 0x00, 0x00, 0xc0, 0x00, 0x70, 0x00, 0x00,
   0x00, 0x00, 0x00, 0x00, 0x00, 0x00, 0x00, 0x00, 0x00, 0x00, 0x30, 0x00,
   0x30, 0x00, 0x00, 0x00, 0x00, 0x00, 0x00, 0x00, 0x00, 0x00, 0x00, 0x00,
   0x00, 0x0c, 0x00, 0x10, 0x00, 0x00, 0x00, 0x00, 0x00, 0x00, 0x00, 0x00,
   0x00, 0x00, 0x00, 0x00, 0x06, 0x00, 0x10, 0x00, 0x00, 0x00, 0x00, 0x00,
   0x00, 0x00, 0x00, 0x00, 0x00, 0x00, 0x80, 0x01, 0x00, 0x10, 0x00, 0x00,
   0x00, 0x00, 0x00, 0x00, 0x00, 0x00, 0x00, 0x00, 0x00, 0xc0, 0x00, 0x00,
   0x10, 0x00, 0x00, 0x00, 0x00, 0x00, 0x00, 0x00, 0x00, 0x00, 0x00, 0x00,
   0x70, 0x00, 0x00, 0x10, 0x00, 0x00, 0x00, 0x00, 0x00, 0x00, 0x00, 0x00,
   0x00, 0x00, 0x00, 0x0c, 0x00, 0x00, 0x10, 0x00, 0x00, 0x00, 0x00, 0x00,
   0x00, 0x00, 0x00, 0x00, 0x00, 0x00, 0x0e, 0x00, 0x00, 0x10, 0x00, 0x00,
   0x00, 0x00, 0x00, 0x00, 0x00, 0x00, 0x00, 0x00, 0x00, 0x03, 0x00, 0x00,
   0x10, 0x00, 0x00, 0x00, 0x00, 0x00, 0x00, 0x00, 0x00, 0x00, 0x00, 0x80,
   0x01, 0x00, 0x00, 0x30, 0x00, 0x00, 0x00, 0x00, 0x00, 0x00, 0x00, 0x00,
   0x00, 0x00, 0x60, 0x00, 0x00, 0x00, 0x30, 0x00, 0x00, 0x00, 0x00, 0x00,
   0x00, 0x00, 0x00, 0x00, 0x00, 0x60, 0x00, 0x00, 0x00, 0x30, 0x00, 0x00,
   0x00, 0x00, 0x00, 0x00, 0x00, 0x00, 0x00, 0x00, 0x18, 0x00, 0x00, 0x00,
   0x20, 0x00, 0x00, 0x00, 0x00, 0x00, 0x00, 0x00, 0x00, 0x00, 0x00, 0x0c,
   0x00, 0x00, 0x00, 0x60, 0x00, 0x00, 0x00, 0x00, 0x00, 0x00, 0x00, 0x00,
   0x00, 0x00, 0x04, 0x00, 0x00, 0x00, 0x60, 0x00, 0x00, 0x00, 0x00, 0x00,
   0x00, 0x00, 0x00, 0x00, 0x00, 0x03, 0x00, 0x00, 0x00, 0x40, 0x00, 0x00,
   0x00, 0x00, 0x00, 0x00, 0x00, 0x00, 0x00, 0x80, 0x01, 0x00, 0x00, 0x00,
   0xc0, 0x00, 0x00, 0x00, 0x00, 0x00, 0x00, 0x00, 0x00, 0x00, 0xc0, 0x00,
   0x00, 0x00, 0x00, 0xc0, 0x00, 0x00, 0x00, 0x00, 0x00, 0x00, 0x00, 0x00,
   0x00, 0x60, 0x00, 0x00, 0x00, 0x00, 0x80, 0x00, 0x00, 0x00, 0x00, 0x00,
   0x00, 0x00, 0x00, 0x00, 0x20, 0x00, 0x00, 0x00, 0x00, 0x80, 0x00, 0x00,
   0x00, 0x00, 0x00, 0x00, 0x00, 0x00, 0x00, 0x18, 0x00, 0x00, 0x00, 0x00,
   0x00, 0x01, 0x00, 0x00, 0x00, 0x00, 0x00, 0x00, 0x00, 0x00, 0x18, 0x00,
   0x00, 0x00, 0x00, 0x00, 0x01, 0x00, 0x00, 0x00, 0x00, 0x00, 0x00, 0x00,
   0x00, 0x08, 0x00, 0x00, 0x00, 0x00, 0x00, 0x03, 0x00, 0x00, 0x00, 0x00,
   0x00, 0x00, 0x00, 0x00, 0x04, 0x1f, 0x00, 0x00, 0x00, 0x00, 0x06, 0x00,
   0x00, 0x00, 0x00, 0x00, 0x00, 0x00, 0x00, 0x04, 0x3c, 0x00, 0x00, 0x00,
   0x00, 0x06, 0x00, 0x00, 0x00, 0x00, 0x00, 0x00, 0x00, 0x00, 0x04, 0x7e,
   0x00, 0x00, 0x00, 0x00, 0x04, 0x00, 0x00, 0x00, 0x00, 0x00, 0x00, 0x00,
   0x00, 0xf8, 0x01, 0x07, 0x00, 0x00, 0x00, 0x08, 0x00, 0x00, 0x00, 0x00,
   0x00, 0x00, 0x00, 0x00, 0x00, 0x00, 0x0e, 0x00, 0x00, 0x00, 0x18, 0x00,
   0x78, 0x00, 0x00, 0x00, 0x00, 0x00, 0x00, 0x00, 0x00, 0x1c, 0x00, 0x00,
   0x00, 0x18, 0x00, 0xf8, 0x00, 0x00, 0x00, 0x00, 0x00, 0x00, 0x00, 0x00,
   0x60, 0x00, 0x00, 0x00, 0x30, 0x00, 0xec, 0x01, 0x00, 0x00, 0x00, 0x00,
   0x00, 0x00, 0x00, 0xc0, 0x00, 0x00, 0x00, 0x20, 0x00, 0xc6, 0x01, 0x00,
   0x00, 0x00, 0x00, 0x00, 0x00, 0x00, 0x80, 0x03, 0x00, 0x00, 0x60, 0x00,
   0x02, 0x03, 0x00, 0x00, 0x00, 0x00, 0x00, 0x00, 0x00, 0x00, 0x06, 0x00,
   0x00, 0xc0, 0x00, 0x02, 0x03, 0x00, 0x00, 0x00, 0x00, 0x00, 0x00, 0x00,
   0x00, 0x0c, 0x00, 0x00, 0xc0, 0x00, 0xc7, 0x03, 0x00, 0x00, 0x00, 0x00,
   0x00, 0x00, 0x00, 0x00, 0x38, 0x00, 0x00, 0x80, 0x81, 0xff, 0x01, 0x00,
   0x00, 0x00, 0x00, 0x00, 0x00, 0x00, 0x00, 0x20, 0x00, 0x00, 0x00, 0xe3,
   0x1f, 0x00, 0x00, 0x00, 0x00, 0x00, 0x00, 0x00, 0x00, 0x00, 0x40, 0x00,
   0x00, 0x00, 0x12, 0x01, 0x00, 0x00, 0x00, 0x00, 0x00, 0x00, 0x00, 0x00,
   0xe0, 0x87, 0x01, 0x00, 0x00, 0x7c, 0x00, 0x00, 0x00, 0x00, 0x00, 0x00,
   0x00, 0x00, 0x00, 0xf8, 0x1f, 0x03, 0x00, 0x00, 0x7a, 0x00, 0x00, 0x00,
   0x00, 0x00, 0x00, 0x00, 0x00, 0x80, 0x0f, 0x30, 0x02, 0x00, 0x00, 0x1b,
   0x00, 0x00, 0x00, 0x00, 0x00, 0x00, 0x00, 0x00, 0xe0, 0x00, 0xc0, 0x07,
   0x00, 0xc0, 0x1c, 0x00, 0x00, 0x00, 0x00, 0x00, 0x00, 0x00, 0x00, 0x1c,
   0xe0, 0x07, 0x0f, 0x00, 0x20, 0x1e, 0x00, 0x00, 0x00, 0x00, 0x00, 0x00,
   0x00, 0x00, 0x1c, 0xf8, 0x1f, 0x1c, 0x00, 0x30, 0x13, 0x00, 0x00, 0x00,
   0x00, 0x00, 0x00, 0x00, 0x00, 0xc3, 0x0f, 0xe0, 0x18, 0x00, 0xc8, 0x20,
   0x00, 0x00, 0x00, 0x00, 0x00, 0x00, 0x00, 0xc0, 0xe0, 0x01, 0xc0, 0x73,
   0x00, 0x26, 0x60, 0x00, 0x00, 0x00, 0x00, 0x00, 0x00, 0x00, 0x40, 0xf0,
   0x01, 0x80, 0x63, 0x00, 0x33, 0x40, 0x00, 0x00, 0x00, 0x00, 0x00, 0x00,
   0x00, 0x30, 0x1c, 0x00, 0x00, 0xe4, 0x01, 0x09, 0x80, 0x00, 0x00, 0x00,
   0x00, 0x00, 0x00, 0x00, 0x10, 0x1c, 0x00, 0x00, 0xcc, 0x81, 0x04, 0x80,
   0x01, 0x00, 0x00, 0x00, 0x00, 0x00, 0x00, 0x18, 0x0e, 0x00, 0x00, 0x18,
   0xc3, 0x06, 0x00, 0x01, 0x00, 0x00, 0x00, 0x00, 0x00, 0x00, 0x80, 0x03,
   0x00, 0x00, 0x20, 0x66, 0x01, 0x00, 0x02, 0x00, 0x00, 0x00, 0x00, 0x00,
   0x00, 0x84, 0x03, 0x00, 0x00, 0x20, 0x3e, 0x00, 0x00, 0x06, 0x00, 0x00,
   0x00, 0x00, 0x00, 0x00, 0xc6, 0x01, 0x00, 0x00, 0xc0, 0x94, 0x00, 0x00,
   0x0c, 0x00, 0x00, 0x00, 0x00, 0x00, 0x00, 0xc2, 0x00, 0x00, 0x00, 0x80,
   0xd1, 0x00, 0x00, 0x0c, 0x00, 0x00, 0x00, 0x00, 0x00, 0x00, 0xe3, 0x00,
   0x00, 0x00, 0x00, 0x41, 0x00, 0x00, 0x08, 0x00, 0x00, 0x00, 0x00, 0x00,
   0x80, 0x71, 0x00, 0x00, 0x00, 0x00, 0xea, 0x00, 0x00, 0x10, 0x00, 0x00,
   0x00, 0x00, 0x00, 0x80, 0x71, 0x00, 0x00, 0x00, 0x00, 0xee, 0x00, 0x00,
   0x30, 0x00, 0x00, 0x00, 0x00, 0x00, 0x80, 0x31, 0x00, 0x00, 0x00, 0x00,
   0xee, 0x00, 0x00, 0x30, 0x00, 0x00, 0x00, 0x00, 0x00, 0x80, 0x38, 0x00,
   0x00, 0x40, 0x00, 0xec, 0x01, 0x00, 0x60, 0x00, 0x00, 0x00, 0x00, 0x00,
   0x80, 0x38, 0x00, 0x00, 0xe0, 0x00, 0x2c, 0x23, 0x00, 0xc0, 0x00, 0x00,
   0x00, 0x00, 0x00, 0x80, 0x38, 0x00, 0x00, 0xe0, 0x00, 0x24, 0x27, 0x00,
   0x80, 0x00, 0x00, 0x00, 0x00, 0x00, 0x00, 0x38, 0x00, 0x00, 0xc0, 0x01,
   0x74, 0x04, 0x00, 0x00, 0x01, 0x00, 0x00, 0x00, 0x00, 0x80, 0x38, 0x00,
   0x00, 0xc0, 0x09, 0x74, 0x0c, 0x00, 0x00, 0x01, 0x00, 0x00, 0x00, 0x00,
   0x80, 0x38, 0x00, 0x00, 0x07, 0x1e, 0x94, 0x18, 0x00, 0x00, 0x03, 0x00,
   0x00, 0x00, 0x00, 0x80, 0x58, 0x00, 0x80, 0x03, 0x27, 0x12, 0x39, 0x00,
   0x00, 0x04, 0x00, 0x00, 0x00, 0x00, 0x80, 0x51, 0x00, 0x80, 0x87, 0x63,
   0x12, 0x33, 0x00, 0x00, 0x04, 0x00, 0x00, 0x00, 0x00, 0x80, 0xf1, 0x00,
   0x00, 0xc7, 0x43, 0x00, 0xe6, 0x00, 0x00, 0x08, 0x00, 0x00, 0x00, 0x00,
   0x00, 0xb3, 0x00, 0x08, 0x7c, 0x83, 0xff, 0xc4, 0x01, 0x00, 0x18, 0x00,
   0x00, 0x00, 0x00, 0x00, 0xa3, 0x01, 0x0e, 0xf8, 0x00, 0x81, 0xc8, 0x03,
   0x00, 0x10, 0x00, 0x00, 0x00, 0x00, 0x00, 0x46, 0x03, 0x0e, 0x0e, 0x8f,
   0x01, 0x13, 0x03, 0x00, 0x60, 0x00, 0x00, 0x00, 0x00, 0x00, 0x46, 0x02,
   0x18, 0x07, 0xca, 0x3f, 0x36, 0x07, 0x00, 0x60, 0x00, 0x00, 0x00, 0x00,
   0x00, 0x84, 0x02, 0xf0, 0x0b, 0x20, 0xcc, 0x24, 0x0e, 0x00, 0x40, 0x00,
   0x00, 0x00, 0x00, 0x00, 0x88, 0x05, 0xf0, 0x1f, 0x18, 0x88, 0x48, 0x1c,
   0x00, 0x80, 0x00, 0x00, 0x00, 0x00, 0x00, 0x18, 0x0f, 0x70, 0x24, 0xc0,
   0x11, 0xd1, 0x1c, 0x00, 0x80, 0x00, 0x00, 0x00, 0x00, 0x00, 0x18, 0x1a,
   0x30, 0x28, 0x62, 0x10, 0x93, 0x3c, 0x00, 0x80, 0x01, 0x00, 0x00, 0x00,
   0x00, 0x20, 0x04, 0x10, 0x50, 0xff, 0x71, 0x24, 0x79, 0x00, 0x00, 0x03,
   0x00, 0x00, 0x00, 0x00, 0x40, 0x2c, 0x60, 0xa0, 0xe7, 0xf9, 0xc0, 0xfb,
   0x00, 0x00, 0x02, 0x00, 0x00, 0x00, 0x00, 0xc0, 0x70, 0x60, 0x20, 0xe3,
   0xfd, 0x88, 0xfb, 0x01, 0x00, 0x06, 0x00, 0x00, 0x00, 0x00, 0x80, 0xe1,
   0x80, 0xc0, 0x13, 0x8f, 0x11, 0x83, 0x01, 0x80, 0x0d, 0x00, 0x00, 0x00,
   0x00, 0x00, 0xe3, 0x81, 0x87, 0x13, 0x0d, 0x33, 0x83, 0x03, 0x80, 0x08,
   0x00, 0x00, 0x00, 0x00, 0x00, 0x42, 0x81, 0x09, 0x70, 0x18, 0x27, 0x18,
   0x07, 0x60, 0x18, 0x00, 0x00, 0x00, 0x00, 0x00, 0x8c, 0x07, 0x00, 0x1e,
   0x3c, 0xc6, 0x38, 0x0c, 0x1c, 0x10, 0x00, 0x00, 0x00, 0x00, 0x00, 0x1c,
   0x07, 0x04, 0x1e, 0x74, 0x84, 0x78, 0x0c, 0x04, 0x10, 0x00, 0x00, 0x00,
   0x00, 0x00, 0x1c, 0x0c, 0x8c, 0x17, 0x68, 0x84, 0x58, 0x0c, 0x06, 0x38,
   0x00, 0x00, 0x00, 0x00, 0x00, 0x30, 0x4c, 0x66, 0x2a, 0xd0, 0x88, 0x83,
   0xf1, 0x00, 0x64, 0x00, 0x00, 0x00, 0x00, 0x00, 0x60, 0x78, 0x62, 0xd2,
   0x10, 0x93, 0x60, 0xf1, 0x80, 0xc3, 0x00, 0x00, 0x00, 0x00, 0x00, 0xe0,
   0x61, 0x44, 0x28, 0x0d, 0xe4, 0x84, 0xe6, 0x60, 0x00, 0x01, 0x00, 0x00,
   0x00, 0x00, 0x40, 0x51, 0x44, 0x78, 0x0f, 0xc4, 0x8c, 0xc5, 0x61, 0x00,
   0x01, 0x00, 0x00, 0x00, 0x00, 0x40, 0x60, 0xc0, 0x71, 0x03, 0xc4, 0x9c,
   0xcd, 0x39, 0x00, 0x01, 0x00, 0x00, 0x00, 0x00, 0x00, 0xc5, 0x18, 0xe3,
   0x00, 0x88, 0x20, 0x02, 0x07, 0x00, 0x02, 0x00, 0x00, 0x00, 0x00, 0x00,
   0x88, 0x31, 0x66, 0x00, 0x10, 0x23, 0x16, 0x07, 0x00, 0x06, 0x00, 0x00,
   0x00, 0x00, 0x00, 0x82, 0x23, 0xc6, 0x00, 0x20, 0x42, 0x37, 0x06, 0x00,
   0x0c, 0x00, 0x00, 0x00, 0x00, 0x00, 0x34, 0x46, 0x1c, 0x0f, 0x70, 0x82,
   0xc4, 0x1c, 0x00, 0x08, 0x00, 0x00, 0x00, 0x00, 0x00, 0x64, 0x46, 0x1c,
   0x0f, 0x78, 0x86, 0xc4, 0x34, 0x00, 0x08, 0x00, 0x00, 0x00, 0x00, 0x00,
   0x48, 0x8c, 0x10, 0x02, 0xc8, 0x8c, 0x84, 0x60, 0x00, 0x10, 0x00, 0x00,
   0x00, 0x00, 0x00, 0x90, 0x39, 0x47, 0x14, 0x87, 0x03, 0x06, 0x99, 0x00,
   0x30, 0x00, 0x00, 0x00, 0x00, 0x00, 0x90, 0x31, 0xc0, 0x18, 0x83, 0x03,
   0x02, 0x99, 0x00, 0x60, 0x00, 0x00, 0x00, 0x00, 0x00, 0x60, 0x23, 0x84,
   0xf1, 0x00, 0x87, 0x01, 0x99, 0x01, 0x60, 0x00, 0x00, 0x00, 0x00, 0x00,
   0x40, 0x46, 0x0c, 0x71, 0x00, 0xfe, 0x00, 0x13, 0x03, 0xc0, 0x00, 0x00,
   0x00, 0x00, 0x00, 0x80, 0x9f, 0xf8, 0x33, 0x00, 0x60, 0x00, 0x33, 0x06,
   0xc0, 0x00, 0x00, 0x00, 0x00, 0x00, 0x3c, 0x00, 0x23, 0xc5, 0x00, 0xc4,
   0x00, 0x32, 0x0c, 0x80, 0x00, 0x00, 0x00, 0x00, 0x00, 0x0c, 0x00, 0x23,
   0x8e, 0x00, 0x88, 0x01, 0x32, 0x0c, 0x80, 0x00, 0x00, 0x00, 0x00, 0x00,
   0x0c, 0xc0, 0xc5, 0x0e, 0x00, 0x10, 0x01, 0x32, 0x18, 0x00, 0x00, 0x00,
   0x00, 0x00, 0x00, 0x0c, 0x38, 0x8c, 0x14, 0x03, 0x00, 0x02, 0x32, 0x10,
   0x00, 0x01, 0x00, 0x00, 0x00, 0xc0, 0x0f, 0x0f, 0x1c, 0x29, 0x06, 0x60,
   0x06, 0x32, 0x10, 0x00, 0x01, 0x00, 0x00, 0x00, 0xc0, 0x9d, 0x0f, 0x13,
   0x68, 0x04, 0x60, 0x0e, 0x32, 0x10, 0x00, 0x01, 0x00, 0x00, 0x00, 0x80,
   0x31, 0xf8, 0x20, 0xf6, 0x08, 0xc0, 0x09, 0x33, 0x20, 0x00, 0x01, 0x00,
   0x00, 0x00, 0x80, 0x01, 0x20, 0xe0, 0x6c, 0x19, 0x00, 0x11, 0x19, 0x60,
   0x00, 0x03, 0x00, 0x00, 0x00, 0x00, 0x00, 0x20, 0xc0, 0x48, 0x19, 0x00,
   0x33, 0x19, 0x60, 0x00, 0x03, 0x00, 0x00, 0x00, 0x00, 0x00, 0x40, 0x00,
   0x91, 0x22, 0x00, 0xe6, 0x08, 0x60, 0x00, 0x03, 0x00, 0x00, 0x00, 0x00,
   0x00, 0xc0, 0x00, 0x11, 0x44, 0x00, 0xe4, 0x08, 0x60, 0x00, 0x03, 0x00,
   0x00, 0x00, 0x00, 0x00, 0x80, 0x00, 0x02, 0xc3, 0x00, 0xcc, 0x04, 0x60,
   0x00, 0x03, 0x00, 0x00, 0x00, 0x00, 0x00, 0x00, 0x03, 0x8c, 0x9c, 0x01,
   0x88, 0x06, 0x60, 0x00, 0x03, 0x00, 0x00, 0x00, 0x00, 0x00, 0x00, 0x02,
   0x8c, 0x18, 0x03, 0x88, 0x07, 0x60, 0x00, 0x03, 0x00, 0x00, 0x00, 0x00,
   0x00, 0x00, 0x00, 0x08, 0x38, 0x03, 0x88, 0x03, 0x60, 0x00, 0x03, 0x00,
   0x00, 0x00, 0x00, 0x00, 0x00, 0x0c, 0x30, 0x43, 0xe4, 0x83, 0x00, 0x20,
   0x00, 0x01, 0x00, 0x00, 0x00, 0x00, 0x00, 0x00, 0x18, 0x70, 0x44, 0x3c,
   0x88, 0x00, 0x20, 0x00, 0x01, 0x00, 0x00, 0x00, 0x00, 0x00, 0x00, 0x10,
   0xc0, 0xb8, 0x11, 0xee, 0x00, 0x10, 0x00, 0x01, 0x00, 0x00, 0x00, 0x00,
   0x00, 0x00, 0x20, 0xc0, 0xf8, 0x01, 0x67, 0x00, 0x10, 0x80, 0x00, 0x00,
   0x00, 0x00, 0x00, 0x00, 0x00, 0x60, 0x80, 0xd8, 0xe3, 0x67, 0x00, 0x10,
   0x80, 0x00, 0x00, 0x00, 0x00, 0x00, 0x00, 0x00, 0xc0, 0x00, 0x23, 0xc4,
   0x18, 0x00, 0x18, 0x80, 0x00, 0x00, 0x00, 0x00, 0x00, 0x00, 0x00, 0x80,
   0x01, 0x47, 0xce, 0x0c, 0x00, 0x0c, 0xc0, 0x00, 0x00, 0x00, 0x00, 0x00,
   0x00, 0x00, 0x80, 0x01, 0xc6, 0x9f, 0x0e, 0x00, 0x0c, 0xc0, 0x00, 0x00,
   0x00, 0x00, 0x00, 0x00, 0x00, 0x00, 0x02, 0x8c, 0x11, 0x01, 0x00, 0x02,
   0x60, 0x00, 0x00, 0x00, 0x00, 0x00, 0x00, 0x00, 0x00, 0x02, 0x18, 0x3f,
   0x03, 0x00, 0x03, 0x70, 0x00, 0x00, 0x00, 0x00, 0x00, 0x00, 0x00, 0x00,
   0x06, 0x38, 0xe2, 0x03, 0x80, 0x01, 0x30, 0x00, 0x00, 0x00, 0x00, 0x00,
   0x00, 0x00, 0x00, 0x08, 0xe0, 0x44, 0x06, 0x60, 0x00, 0x18, 0x00, 0x00,
   0x00, 0x00, 0x00, 0x00, 0x00, 0x00, 0x18, 0xe0, 0x44, 0x06, 0x78, 0x00,
   0x0c, 0x00, 0x00, 0x00, 0x00, 0x00, 0x00, 0x00, 0x00, 0x30, 0xc0, 0x7c,
   0x06, 0x1c, 0x00, 0x0c, 0x00, 0x00, 0x00, 0x00, 0x00, 0x00, 0x00, 0x00,
   0x60, 0xc0, 0x3d, 0x02, 0x07, 0x00, 0x06, 0x00, 0x00, 0x00, 0x00, 0x00,
   0x00, 0x00, 0x00, 0xc0, 0x00, 0x03, 0xf3, 0x01, 0x00, 0x01, 0x00, 0x00,
   0x00, 0x00, 0x00, 0x00, 0x00, 0x00, 0xc0, 0x00, 0x02, 0xff, 0x00, 0x80,
   0x01, 0x00, 0x00, 0x00, 0x00, 0x00, 0x00, 0x00, 0x00, 0x00, 0x03, 0x7c,
   0x00, 0x00, 0xe0, 0x00, 0x00, 0x00, 0x00, 0x00, 0x00, 0x00, 0x00, 0x00,
   0x00, 0x04, 0x00, 0x00, 0x00, 0x30, 0x00, 0x00, 0x00, 0x00, 0x00, 0x00,
   0x00, 0x00, 0x00, 0x00, 0x18, 0x00, 0x00, 0x00, 0x1c, 0x00, 0x00, 0x00,
   0x00, 0x00, 0x00, 0x00, 0x00, 0x00, 0x00, 0x30, 0x00, 0x00, 0x00, 0x07,
   0x00, 0x00, 0x00, 0x00, 0x00, 0x00, 0x00, 0x00, 0x00, 0x00, 0x70, 0x00,
   0x00, 0x80, 0x03, 0x00, 0x00, 0x00, 0x00, 0x00, 0x00, 0x00, 0x00, 0x00,
   0x00, 0x80, 0x03, 0x00, 0x78, 0x00, 0x00, 0x00, 0x00, 0x00, 0x00, 0x00,
   0x00, 0x00, 0x00, 0x00, 0x00, 0x1e, 0x00, 0x1e, 0x00, 0x00, 0x00, 0x00,
   0x00, 0x00, 0x00, 0x00, 0x00, 0x00, 0x00, 0x00, 0x3c, 0xc0, 0x07, 0x00,
   0x00, 0x00, 0x00, 0x00, 0x00, 0x00, 0x00, 0x00, 0x00, 0x00, 0x00, 0x00,
   0x7f, 0x00, 0x00, 0x00, 0x00, 0x00, 0x00, 0x00, 0x00, 0x00, 0x00, 0x00,
   0x00, 0x00, 0x00, 0x08, 0x00, 0x00, 0x00, 0x00, 0x00, 0x00, 0x00, 0x00,
   0x00, 0x00, 0x00, 0x00, 0x00, 0x00, 0x00, 0x00, 0x00, 0x00, 0x00, 0x00,
   0x00, 0x00, 0x00, 0x00, 0x00, 0x00, 0x00, 0x00, 0x00, 0x00, 0x00, 0x00,
   0x00, 0x00, 0x00, 0x00, 0x00, 0x00, 0x00, 0x00, 0x00, 0x00, 0x00, 0x00,
   0x00, 0x00, 0x00, 0x00, 0x00, 0x00, 0x00, 0x00, 0x00, 0x00, 0x00, 0x00,
   0x00, 0x00, 0x00, 0x00, 0x00, 0x00, 0x00, 0x00, 0x00, 0x00, 0x00, 0x00,
   0x00, 0x00, 0x00, 0x00, 0x00, 0x00, 0x00, 0x00, 0x00, 0x00, 0x00, 0x00,
   0x00, 0x00, 0x00, 0x00, 0x00, 0x00, 0x00, 0x00, 0x00, 0x00, 0x00, 0x00,
   0x00, 0x00, 0x00};
