#define ophicleide_width 83
#define ophicleide_height 195
static char ophicleide_bits[] = {
   0x00, 0x00, 0x00, 0x00, 0x00, 0x00, 0x00, 0x00, 0x00, 0x00, 0xf8, 0x00,
   0x00, 0x00, 0x00, 0x00, 0x00, 0x00, 0x00, 0x00, 0x00, 0xf8, 0x00, 0x00,
   0x00, 0x00, 0x00, 0x00, 0x00, 0x00, 0x00, 0x00, 0xf8, 0x00, 0x00, 0x00,
   0x00, 0x00, 0x00, 0x00, 0x00, 0x00, 0x00, 0xf8, 0x00, 0x00, 0x00, 0x00,
   0x00, 0x00, 0x00, 0x00, 0x00, 0x00, 0xf8, 0x00, 0x00, 0x00, 0x00, 0x00,
   0x00, 0x00, 0x00, 0x00, 0x00, 0xf8, 0x00, 0x00, 0x00, 0x00, 0x00, 0x00,
   0x00, 0x00, 0x00, 0x00, 0xf8, 0x00, 0x00, 0x00, 0x00, 0x00, 0x00, 0x00,
   0x00, 0x00, 0x00, 0xf8, 0x00, 0x00, 0x00, 0x00, 0x00, 0x00, 0x00, 0x00,
   0x00, 0x00, 0xf8, 0x00, 0x00, 0x00, 0x00, 0x00, 0x00, 0x00, 0x00, 0x00,
   0x00, 0xf8, 0x00, 0x00, 0x00, 0x00, 0x00, 0x00, 0x00, 0x00, 0x00, 0x00,
   0xf8, 0x00, 0x00, 0x00, 0x00, 0xe0, 0xff, 0x01, 0x00, 0x00, 0x00, 0xf8,
   0x00, 0x00, 0x00, 0x00, 0xfc, 0xff, 0x07, 0x00, 0x00, 0x00, 0xf8, 0x00,
   0x00, 0x00, 0xc0, 0x1f, 0x00, 0x7f, 0x00, 0x00, 0x00, 0xf8, 0x00, 0x00,
   0x00, 0x3c, 0x00, 0x01, 0xc0, 0x03, 0x00, 0x00, 0xf8, 0x00, 0x00, 0x00,
   0x1f, 0x00, 0x00, 0x80, 0x03, 0x00, 0x00, 0xf8, 0x00, 0x00, 0xc0, 0x03,
   0x00, 0x00, 0x00, 0x07, 0x00, 0x00, 0xf8, 0x00, 0x00, 0xe0, 0x00, 0x00,
   0x00, 0x80, 0x03, 0x00, 0x00, 0xf8, 0x00, 0x00, 0xe0, 0x00, 0x00, 0x00,
   0xc0, 0x00, 0x00, 0x00, 0xf8, 0x00, 0x00, 0xe0, 0x01, 0x00, 0x00, 0x60,
   0x00, 0x00, 0x00, 0xf8, 0x00, 0x00, 0x00, 0x06, 0x00, 0x00, 0x20, 0x00,
   0x00, 0x00, 0xf8, 0x00, 0x00, 0x00, 0x0c, 0x00, 0x00, 0x30, 0x00, 0x00,
   0x00, 0xf8, 0x00, 0x00, 0x00, 0x18, 0x00, 0x00, 0x18, 0x00, 0x00, 0x00,
   0xf8, 0x00, 0x00, 0x00, 0x30, 0x00, 0x00, 0x08, 0x00, 0x00, 0x00, 0xf8,
   0x00, 0x00, 0x00, 0x30, 0x00, 0x00, 0x08, 0x00, 0x00, 0x00, 0xf8, 0x00,
   0x00, 0x00, 0x40, 0x00, 0x00, 0x00, 0x00, 0x00, 0x00, 0xf8, 0x00, 0x00,
   0x00, 0x40, 0x00, 0x00, 0x04, 0x00, 0x00, 0x00, 0xf8, 0x00, 0x00, 0x00,
   0x40, 0x00, 0x00, 0x04, 0x00, 0x00, 0x00, 0xf8, 0x00, 0x00, 0x00, 0xc0,
   0x00, 0x00, 0x06, 0x00, 0x00, 0x00, 0xf8, 0x00, 0x00, 0x00, 0xc0, 0x00,
   0x00, 0x06, 0x00, 0x00, 0x00, 0xf8, 0x00, 0x00, 0x00, 0xc0, 0x00, 0x00,
   0x06, 0x00, 0x00, 0x00, 0xf8, 0x00, 0x00, 0x00, 0x80, 0x01, 0x00, 0x06,
   0x00, 0x00, 0x00, 0xf8, 0x00, 0x00, 0x00, 0x80, 0x01, 0x00, 0x06, 0x00,
   0x00, 0x00, 0xf8, 0x00, 0x00, 0x00, 0x80, 0x01, 0x00, 0x06, 0x00, 0x00,
   0x00, 0xf8, 0x00, 0x00, 0x00, 0x80, 0x01, 0x00, 0x06, 0x00, 0x00, 0x00,
   0xf8, 0x00, 0x00, 0x00, 0x80, 0x01, 0x00, 0x06, 0x00, 0x00, 0x00, 0xf8,
   0x00, 0x00, 0x00, 0x80, 0x01, 0x00, 0x06, 0x00, 0x00, 0x00, 0xf8, 0x00,
   0x00, 0x00, 0x80, 0x01, 0x00, 0x04, 0x00, 0x00, 0x00, 0xf8, 0x00, 0x00,
   0x00, 0x80, 0x01, 0x00, 0x04, 0x00, 0x00, 0x00, 0xf8, 0x00, 0x00, 0x00,
   0x80, 0x01, 0x00, 0x04, 0x00, 0x00, 0x00, 0xf8, 0x00, 0x00, 0x00, 0x80,
   0x01, 0x00, 0x06, 0x00, 0x00, 0x00, 0xf8, 0x00, 0x00, 0x00, 0x00, 0x01,
   0x00, 0x06, 0x00, 0x00, 0x00, 0xf8, 0x00, 0x00, 0x00, 0x00, 0x01, 0x00,
   0x04, 0x7c, 0x00, 0x00, 0xf8, 0x00, 0x00, 0x00, 0x00, 0x01, 0x00, 0x84,
   0xff, 0x01, 0x00, 0xf8, 0x00, 0x00, 0x00, 0x00, 0x03, 0x00, 0xc4, 0x01,
   0x03, 0x00, 0xf8, 0x00, 0x00, 0x00, 0x00, 0x03, 0x00, 0xc4, 0x00, 0x02,
   0x00, 0xf8, 0x00, 0x00, 0x00, 0x00, 0x03, 0x00, 0x74, 0x00, 0x0c, 0x00,
   0xf8, 0x00, 0x00, 0x00, 0x00, 0x03, 0x00, 0x34, 0x70, 0x08, 0x00, 0xf8,
   0x00, 0x00, 0x00, 0x00, 0x03, 0x1e, 0x14, 0xf8, 0x08, 0x00, 0xf8, 0x00,
   0x00, 0x00, 0x00, 0xe2, 0x61, 0x1c, 0x84, 0x19, 0x00, 0xf8, 0x00, 0x00,
   0x00, 0x00, 0xe2, 0xc0, 0x1c, 0x8c, 0x19, 0x00, 0xf8, 0x00, 0x00, 0x00,
   0x00, 0x22, 0x86, 0x1c, 0xbf, 0x19, 0x00, 0xf8, 0x00, 0x00, 0x00, 0x00,
   0x12, 0x06, 0x7c, 0xa6, 0x19, 0x00, 0xf8, 0x00, 0x00, 0x00, 0x00, 0x12,
   0x0e, 0x7c, 0xa6, 0x19, 0x00, 0xf8, 0x00, 0x00, 0x00, 0x00, 0x12, 0x0e,
   0x1c, 0x84, 0x19, 0x00, 0xf8, 0x00, 0x00, 0x00, 0x00, 0x22, 0x84, 0x1c,
   0x04, 0x11, 0x00, 0xf8, 0x00, 0x00, 0x00, 0x00, 0x62, 0x80, 0x1e, 0x04,
   0x11, 0x00, 0xf8, 0x00, 0x00, 0x00, 0x00, 0xe2, 0xc0, 0x1c, 0x04, 0x11,
   0x00, 0xf8, 0x00, 0x00, 0x00, 0x00, 0x02, 0x3f, 0x1f, 0x04, 0x11, 0x00,
   0xf8, 0x00, 0x00, 0x00, 0x00, 0x00, 0x1e, 0x1c, 0x04, 0x11, 0x00, 0xf8,
   0x00, 0x00, 0x00, 0x00, 0x00, 0x00, 0x18, 0x04, 0x11, 0x00, 0xf8, 0x00,
   0x00, 0x00, 0x00, 0x04, 0x02, 0x18, 0xc4, 0x11, 0x00, 0xf8, 0x00, 0x00,
   0x00, 0x00, 0x04, 0x02, 0x18, 0xc4, 0x11, 0x00, 0xf8, 0x00, 0x00, 0x00,
   0x00, 0xc4, 0x06, 0x1c, 0xc4, 0x11, 0x00, 0xf8, 0x00, 0x00, 0x00, 0x00,
   0x04, 0x00, 0x18, 0xc4, 0x11, 0x00, 0xf8, 0x00, 0x00, 0x00, 0x00, 0xdc,
   0x00, 0x1c, 0xc4, 0x11, 0x00, 0xf8, 0x00, 0x00, 0x00, 0x00, 0x9c, 0x00,
   0x1c, 0xcc, 0x11, 0x00, 0xf8, 0x00, 0x00, 0x00, 0x00, 0x16, 0x00, 0x18,
   0x4c, 0x11, 0x00, 0xf8, 0x00, 0x00, 0x00, 0x00, 0x07, 0x00, 0x10, 0x4c,
   0x01, 0x00, 0xf8, 0x00, 0x00, 0x00, 0x80, 0x07, 0x00, 0x14, 0x4c, 0x01,
   0x00, 0xf8, 0x00, 0x00, 0x00, 0xc0, 0x0f, 0x00, 0x18, 0x4c, 0x11, 0x00,
   0xf8, 0x00, 0x00, 0x00, 0xf0, 0x0d, 0x00, 0x18, 0x4c, 0x11, 0x00, 0xf8,
   0x00, 0x00, 0x00, 0x7f, 0x0c, 0x00, 0x10, 0x44, 0x1e, 0x00, 0xf8, 0x00,
   0x00, 0xe0, 0x3f, 0x0c, 0x00, 0x10, 0x4c, 0x3e, 0x00, 0xf8, 0x00, 0x00,
   0xe0, 0x1f, 0x0c, 0x00, 0x10, 0x4c, 0x3e, 0x00, 0xf8, 0x00, 0x00, 0x80,
   0x07, 0x0c, 0x78, 0xf8, 0xdf, 0x00, 0x00, 0xf8, 0x00, 0x00, 0x80, 0x07,
   0x08, 0xfc, 0xf8, 0xdf, 0x00, 0x00, 0xf8, 0x00, 0x00, 0x80, 0x03, 0x08,
   0x3e, 0xf9, 0x8f, 0x10, 0x00, 0xf8, 0x00, 0x00, 0x00, 0x00, 0x08, 0x31,
   0x16, 0x08, 0x10, 0x00, 0xf8, 0x00, 0x00, 0x00, 0x00, 0x18, 0x31, 0x16,
   0x08, 0x18, 0x00, 0xf8, 0x00, 0x00, 0x00, 0x00, 0x18, 0x31, 0x36, 0x08,
   0x1e, 0x00, 0xf8, 0x00, 0x00, 0x00, 0x00, 0x18, 0x79, 0x37, 0x08, 0x0e,
   0x00, 0xf8, 0x00, 0x00, 0x00, 0x00, 0x18, 0x02, 0x37, 0x08, 0x0e, 0x00,
   0xf8, 0x00, 0x00, 0x00, 0x00, 0x18, 0x06, 0x35, 0x08, 0x0e, 0x00, 0xf8,
   0x00, 0x00, 0x00, 0x00, 0x18, 0x78, 0x30, 0x08, 0x00, 0x00, 0xf8, 0x00,
   0x00, 0x00, 0x00, 0x18, 0x00, 0x30, 0x08, 0x00, 0x00, 0xf8, 0x00, 0x00,
   0x00, 0x00, 0x10, 0x00, 0x30, 0x18, 0x00, 0x00, 0xf8, 0x00, 0x00, 0x00,
   0x00, 0x10, 0x00, 0x30, 0x18, 0x00, 0x00, 0xf8, 0x00, 0x00, 0x00, 0x00,
   0x10, 0x00, 0x30, 0x18, 0x00, 0x00, 0xf8, 0x00, 0x00, 0x00, 0x00, 0x10,
   0x00, 0x30, 0x18, 0x00, 0x00, 0xf8, 0x00, 0x00, 0x00, 0x00, 0x10, 0x00,
   0x30, 0x18, 0x00, 0x00, 0xf8, 0x00, 0x00, 0x00, 0x00, 0x10, 0x00, 0x30,
   0x18, 0x00, 0x00, 0xf8, 0x00, 0x00, 0x00, 0x00, 0x10, 0x00, 0x30, 0x18,
   0x00, 0x00, 0xf8, 0x00, 0x00, 0x00, 0x00, 0x10, 0x00, 0x30, 0xd8, 0x03,
   0x00, 0xf8, 0x00, 0x00, 0x00, 0x00, 0x10, 0x03, 0x30, 0xf0, 0x07, 0x00,
   0xf8, 0x00, 0x00, 0x00, 0x00, 0xe0, 0x03, 0x30, 0xf0, 0x07, 0x00, 0xf8,
   0x00, 0x00, 0x00, 0x00, 0xe0, 0x1f, 0x30, 0x30, 0x00, 0x00, 0xf8, 0x00,
   0x00, 0x00, 0x00, 0x20, 0x13, 0x30, 0x30, 0x00, 0x00, 0xf8, 0x00, 0x00,
   0x00, 0x00, 0x00, 0x02, 0x30, 0x30, 0x00, 0x00, 0xf8, 0x00, 0x00, 0x00,
   0x00, 0x20, 0x17, 0x30, 0x10, 0x00, 0x00, 0xf8, 0x00, 0x00, 0x00, 0x00,
   0x20, 0x17, 0x30, 0x10, 0x00, 0x00, 0xf8, 0x00, 0x00, 0x00, 0x00, 0x20,
   0x07, 0x30, 0x10, 0x00, 0x00, 0xf8, 0x00, 0x00, 0x00, 0x00, 0x20, 0x00,
   0x20, 0x30, 0x00, 0x00, 0xf8, 0x00, 0x00, 0x00, 0x00, 0x20, 0x00, 0x38,
   0x10, 0x00, 0x00, 0xf8, 0x00, 0x00, 0x00, 0x00, 0x20, 0x00, 0x38, 0x30,
   0x00, 0x00, 0xf8, 0x00, 0x00, 0x00, 0x00, 0x20, 0x00, 0x30, 0x10, 0x00,
   0x00, 0xf8, 0x00, 0x00, 0x00, 0x00, 0x20, 0x00, 0x38, 0x30, 0x00, 0x00,
   0xf8, 0x00, 0x00, 0x00, 0x00, 0x20, 0x00, 0x28, 0x10, 0x00, 0x00, 0xf8,
   0x00, 0x00, 0x00, 0x00, 0x20, 0x00, 0x28, 0x30, 0x00, 0x00, 0xf8, 0x00,
   0x00, 0x00, 0x00, 0x20, 0x00, 0x68, 0x30, 0x00, 0x00, 0xf8, 0x00, 0x00,
   0x00, 0x00, 0x60, 0x00, 0x28, 0x30, 0x00, 0x00, 0xf8, 0x00, 0x00, 0x00,
   0x00, 0x60, 0x00, 0x38, 0x30, 0x00, 0x00, 0xf8, 0x00, 0x00, 0x00, 0x00,
   0x60, 0x00, 0x68, 0x30, 0x00, 0x00, 0xf8, 0x00, 0x00, 0x00, 0x00, 0x60,
   0x00, 0x68, 0x30, 0x00, 0x00, 0xf8, 0x00, 0x00, 0x00, 0x00, 0x60, 0x00,
   0x68, 0x30, 0x00, 0x00, 0xf8, 0x00, 0x00, 0x00, 0x00, 0x60, 0x00, 0x68,
   0x30, 0x00, 0x00, 0xf8, 0x00, 0x00, 0x00, 0x00, 0x60, 0x00, 0x68, 0x30,
   0x00, 0x00, 0xf8, 0x00, 0x00, 0x00, 0x00, 0xc0, 0x00, 0x28, 0x30, 0x00,
   0x00, 0xf8, 0x00, 0x00, 0x00, 0x00, 0xc0, 0x00, 0x28, 0x30, 0x00, 0x00,
   0xf8, 0x00, 0x00, 0x00, 0x00, 0xc0, 0x00, 0x68, 0x30, 0x00, 0x00, 0xf8,
   0x00, 0x00, 0x00, 0x00, 0xc0, 0xf0, 0x69, 0x20, 0x00, 0x00, 0xf8, 0x00,
   0x00, 0x00, 0x00, 0xc0, 0x78, 0x2f, 0x20, 0x00, 0x00, 0xf8, 0x00, 0x00,
   0x00, 0x00, 0xc0, 0x74, 0xe4, 0x3f, 0x00, 0x00, 0xf8, 0x00, 0x00, 0x00,
   0x00, 0xc0, 0xf2, 0xe0, 0x3f, 0x00, 0x00, 0xf8, 0x00, 0x00, 0x00, 0x00,
   0xc0, 0xf2, 0xe0, 0x37, 0x00, 0x00, 0xf8, 0x00, 0x00, 0x00, 0x00, 0x80,
   0xe2, 0x60, 0x36, 0x00, 0x00, 0xf8, 0x00, 0x00, 0x00, 0x00, 0x80, 0x46,
   0x60, 0x3f, 0x00, 0x00, 0xf8, 0x00, 0x00, 0x00, 0x00, 0xc0, 0x44, 0x64,
   0x3f, 0x00, 0x00, 0xf8, 0x00, 0x00, 0x00, 0x00, 0xc0, 0xf0, 0xe9, 0x3f,
   0x00, 0x00, 0xf8, 0x00, 0x00, 0x00, 0x00, 0x80, 0x01, 0x28, 0x20, 0x00,
   0x00, 0xf8, 0x00, 0x00, 0x00, 0x00, 0x80, 0x01, 0x68, 0x20, 0x00, 0x00,
   0xf8, 0x00, 0x00, 0x00, 0x00, 0x80, 0x01, 0x68, 0x20, 0x00, 0x00, 0xf8,
   0x00, 0x00, 0x00, 0x00, 0x80, 0x01, 0x68, 0x20, 0x00, 0x00, 0xf8, 0x00,
   0x00, 0x00, 0x00, 0x80, 0x01, 0x68, 0x20, 0x00, 0x00, 0xf8, 0x00, 0x00,
   0x00, 0x00, 0x80, 0x01, 0x68, 0x00, 0x00, 0x00, 0xf8, 0x00, 0x00, 0x00,
   0x00, 0x00, 0x01, 0x68, 0x00, 0x00, 0x00, 0xf8, 0x00, 0x00, 0x00, 0x00,
   0x00, 0x01, 0x68, 0x20, 0x00, 0x00, 0xf8, 0x00, 0x00, 0x00, 0x00, 0x00,
   0x01, 0x68, 0x06, 0x00, 0x00, 0xf8, 0x00, 0x00, 0x00, 0x00, 0x00, 0x01,
   0xe8, 0x3f, 0x00, 0x00, 0xf8, 0x00, 0x00, 0x00, 0x00, 0x00, 0x01, 0xe8,
   0x3f, 0x00, 0x00, 0xf8, 0x00, 0x00, 0x00, 0x00, 0x00, 0x01, 0x48, 0x26,
   0x00, 0x00, 0xf8, 0x00, 0x00, 0x00, 0x00, 0x00, 0x01, 0x48, 0x37, 0x00,
   0x00, 0xf8, 0x00, 0x00, 0x00, 0x00, 0x00, 0x01, 0xc8, 0x3f, 0x00, 0x00,
   0xf8, 0x00, 0x00, 0x00, 0x00, 0x00, 0x01, 0xc8, 0x3f, 0x00, 0x00, 0xf8,
   0x00, 0x00, 0x00, 0x00, 0x00, 0x01, 0x48, 0x0f, 0x00, 0x00, 0xf8, 0x00,
   0x00, 0x00, 0x00, 0x00, 0x01, 0x68, 0x00, 0x00, 0x00, 0xf8, 0x00, 0x00,
   0x00, 0x00, 0x00, 0x00, 0x68, 0x00, 0x00, 0x00, 0xf8, 0x00, 0x00, 0x00,
   0x00, 0x00, 0x00, 0x68, 0x00, 0x00, 0x00, 0xf8, 0x00, 0x00, 0x00, 0x00,
   0x00, 0x00, 0x68, 0x00, 0x00, 0x00, 0xf8, 0x00, 0x00, 0x00, 0x00, 0xfc,
   0x01, 0x48, 0x00, 0x00, 0x00, 0xf8, 0x00, 0x00, 0x00, 0x00, 0xe0, 0x01,
   0x48, 0x7f, 0x00, 0x00, 0xf8, 0x00, 0x00, 0x00, 0x00, 0x80, 0x03, 0x48,
   0x7f, 0x00, 0x00, 0xf8, 0x00, 0x00, 0x00, 0x00, 0x00, 0x01, 0xc8, 0x7f,
   0x00, 0x00, 0xf8, 0x00, 0x00, 0x00, 0x00, 0x00, 0x02, 0xc8, 0x7f, 0x00,
   0x00, 0xf8, 0x00, 0x00, 0x00, 0x00, 0x00, 0x7a, 0x48, 0x7f, 0x00, 0x00,
   0xf8, 0x00, 0x00, 0x00, 0x00, 0x00, 0x72, 0x4b, 0x71, 0x00, 0x00, 0xf8,
   0x00, 0x00, 0x00, 0x00, 0x00, 0x72, 0x4a, 0x44, 0x00, 0x00, 0xf8, 0x00,
   0x00, 0x00, 0x00, 0x00, 0xe2, 0x48, 0x40, 0x00, 0x00, 0xf8, 0x00, 0x00,
   0x00, 0x00, 0x00, 0xf2, 0x4e, 0x40, 0x00, 0x00, 0xf8, 0x00, 0x00, 0x00,
   0x00, 0x00, 0xf6, 0x48, 0x40, 0x00, 0x00, 0xf8, 0x00, 0x00, 0x00, 0x00,
   0x00, 0x46, 0x48, 0x40, 0x00, 0x00, 0xf8, 0x00, 0x00, 0x00, 0x00, 0x00,
   0x6e, 0x48, 0x40, 0x00, 0x00, 0xf8, 0x00, 0x00, 0x00, 0x00, 0x00, 0x06,
   0x48, 0x40, 0x00, 0x00, 0xf8, 0x00, 0x00, 0x00, 0x00, 0x00, 0x06, 0x48,
   0x40, 0x00, 0x00, 0xf8, 0x00, 0x00, 0x00, 0x00, 0x00, 0xf6, 0xcc, 0x7f,
   0x00, 0x00, 0xf8, 0x00, 0x00, 0x00, 0x00, 0x00, 0xce, 0xcc, 0x7f, 0x00,
   0x00, 0xf8, 0x00, 0x00, 0x00, 0x00, 0x00, 0xcc, 0xc8, 0x7c, 0x00, 0x00,
   0xf8, 0x00, 0x00, 0x00, 0x00, 0x00, 0xe4, 0xc9, 0x64, 0x00, 0x00, 0xf8,
   0x00, 0x00, 0x00, 0x00, 0x00, 0xe4, 0xc9, 0x66, 0x00, 0x00, 0xf8, 0x00,
   0x00, 0x00, 0x00, 0x00, 0xec, 0xc9, 0xe3, 0x00, 0x00, 0xf8, 0x00, 0x00,
   0x00, 0x00, 0x00, 0x0c, 0x48, 0xdb, 0x00, 0x00, 0xf8, 0x00, 0x00, 0x00,
   0x00, 0x00, 0x3c, 0x7e, 0x40, 0x00, 0x00, 0xf8, 0x00, 0x00, 0x00, 0x00,
   0x00, 0x0c, 0x10, 0x40, 0x00, 0x00, 0xf8, 0x00, 0x00, 0x00, 0x00, 0x00,
   0x0c, 0x38, 0x40, 0x00, 0x00, 0xf8, 0x00, 0x00, 0x00, 0x00, 0x00, 0x0c,
   0x7c, 0x40, 0x00, 0x00, 0xf8, 0x00, 0x00, 0x00, 0x00, 0x00, 0x08, 0xfb,
   0x20, 0x00, 0x00, 0xf8, 0x00, 0x00, 0x00, 0x00, 0x00, 0x10, 0xb9, 0x38,
   0x00, 0x00, 0xf8, 0x00, 0x00, 0x00, 0x00, 0x00, 0x30, 0xb9, 0x18, 0x00,
   0x00, 0xf8, 0x00, 0x00, 0x00, 0x00, 0x00, 0xc0, 0xfb, 0x0f, 0x00, 0x00,
   0xf8, 0x00, 0x00, 0x00, 0x00, 0x00, 0x80, 0xff, 0x0f, 0x00, 0x00, 0xf8,
   0x00, 0x00, 0x00, 0x00, 0x00, 0x80, 0xff, 0x0f, 0x00, 0x00, 0xf8, 0x00,
   0x00, 0x00, 0x00, 0x00, 0x00, 0xff, 0x03, 0x00, 0x00, 0xf8, 0x00, 0x00,
   0x00, 0x00, 0x00, 0x00, 0xfc, 0x01, 0x00, 0x00, 0xf8, 0x00, 0x00, 0x00,
   0x00, 0x00, 0x00, 0x00, 0x00, 0x00, 0x00, 0xf8, 0x00, 0x00, 0x00, 0x00,
   0x00, 0x00, 0x00, 0x00, 0x00, 0x00, 0xf8, 0x00, 0x00, 0x00, 0x00, 0x00,
   0x00, 0x00, 0x00, 0x00, 0x00, 0xf8, 0x00, 0x00, 0x00, 0x00, 0x00, 0x00,
   0x00, 0x00, 0x00, 0x00, 0xf8, 0x00, 0x00, 0x00, 0x00, 0x00, 0x00, 0x00,
   0x00, 0x00, 0x00, 0xf8, 0x00, 0x00, 0x00, 0x00, 0x00, 0x00, 0x00, 0x00,
   0x00, 0x00, 0xf8, 0x00, 0x00, 0x00, 0x00, 0x00, 0x00, 0x00, 0x00, 0x00,
   0x00, 0xf8, 0x00, 0x00, 0x00, 0x00, 0x00, 0x00, 0x00, 0x00, 0x00, 0x00,
   0xf8, 0x00, 0x00, 0x00, 0x00, 0x00, 0x00, 0x00, 0x00, 0x00, 0x00, 0xf8,
   0x00, 0x00, 0x00, 0x00, 0x00, 0x00, 0x00, 0x00, 0x00, 0x00, 0xf8, 0x00,
   0x00, 0x00, 0x00, 0x00, 0x00, 0x00, 0x00, 0x00, 0x00, 0xf8, 0x00, 0x00,
   0x00, 0x00, 0x00, 0x00, 0x00, 0x00, 0x00, 0x00, 0xf8};
