#define serpent_width 99
#define serpent_height 137
static char serpent_bits[] = {
   0x00, 0x00, 0x00, 0x00, 0x00, 0x00, 0x00, 0x00, 0x00, 0x00, 0x00, 0x00,
   0xf8, 0x00, 0x00, 0x00, 0x00, 0x00, 0x00, 0x00, 0x00, 0x00, 0x00, 0x00,
   0x00, 0xf8, 0x00, 0x00, 0x00, 0x00, 0x00, 0x00, 0x00, 0x00, 0x00, 0x00,
   0x00, 0x00, 0xf8, 0x00, 0x00, 0x00, 0x00, 0x00, 0x00, 0x00, 0x00, 0x00,
   0x00, 0x00, 0x00, 0xf8, 0x00, 0x00, 0x00, 0x00, 0x00, 0x00, 0x00, 0x00,
   0x00, 0x00, 0x00, 0x00, 0xf8, 0x00, 0x00, 0x00, 0x00, 0x00, 0x00, 0x00,
   0x00, 0x00, 0x00, 0x00, 0x00, 0xf8, 0x00, 0x00, 0x00, 0x00, 0x00, 0x00,
   0x00, 0x00, 0x00, 0x00, 0x00, 0x00, 0xf8, 0x00, 0x00, 0x00, 0x00, 0x00,
   0x00, 0x00, 0x00, 0x00, 0x00, 0x00, 0x00, 0xf8, 0x00, 0x00, 0x00, 0x00,
   0x00, 0x00, 0x00, 0x00, 0x00, 0x00, 0x00, 0x00, 0xf8, 0x00, 0x00, 0x00,
   0x00, 0x00, 0x00, 0x00, 0x00, 0x00, 0x00, 0x00, 0x00, 0xf8, 0x00, 0x00,
   0x00, 0x00, 0x00, 0x00, 0x00, 0x00, 0x00, 0x00, 0x00, 0x00, 0xf8, 0x00,
   0x00, 0x00, 0x00, 0x00, 0x00, 0x00, 0x00, 0x00, 0x00, 0x00, 0x00, 0xf8,
   0x00, 0x00, 0x00, 0x00, 0x00, 0x00, 0x00, 0x00, 0x00, 0x00, 0x00, 0x00,
   0xf8, 0x00, 0x00, 0x00, 0xf8, 0xff, 0xff, 0x7f, 0x6f, 0xfe, 0x00, 0x00,
   0x00, 0xf8, 0x00, 0x00, 0x00, 0xf8, 0xdf, 0xff, 0x67, 0x2e, 0xfe, 0x00,
   0x00, 0x00, 0xf8, 0x00, 0x00, 0xff, 0x3f, 0x01, 0x4a, 0x01, 0x24, 0xfc,
   0x03, 0x00, 0x00, 0xf8, 0x00, 0xf0, 0xff, 0x1f, 0x0a, 0x2c, 0x82, 0x2c,
   0xcc, 0x03, 0x00, 0x00, 0xf8, 0x00, 0xf0, 0x3b, 0x18, 0xd8, 0x8c, 0xfa,
   0xff, 0x8c, 0x07, 0x00, 0x00, 0xf8, 0x00, 0x0e, 0x00, 0xe0, 0x1f, 0x00,
   0x08, 0x00, 0x88, 0x07, 0x00, 0x00, 0xf8, 0x00, 0x0f, 0x00, 0x00, 0x00,
   0x00, 0x08, 0x00, 0x80, 0x07, 0x00, 0x00, 0xf8, 0x00, 0x07, 0x00, 0x00,
   0x00, 0x00, 0x00, 0x00, 0xf0, 0x07, 0x00, 0x00, 0xf8, 0x00, 0x03, 0x00,
   0x00, 0x00, 0x00, 0x08, 0x00, 0x80, 0x07, 0x00, 0x00, 0xf8, 0x00, 0x03,
   0x00, 0x00, 0x00, 0x00, 0x08, 0x00, 0xb8, 0x07, 0x00, 0x00, 0xf8, 0x00,
   0x09, 0x00, 0x00, 0x00, 0x00, 0x08, 0x00, 0x3c, 0x07, 0x00, 0x00, 0xf8,
   0x80, 0x0f, 0x00, 0x00, 0x00, 0xff, 0xff, 0xff, 0x8f, 0x03, 0x00, 0x00,
   0xf8, 0x80, 0x07, 0x00, 0x00, 0xfe, 0x9f, 0xf3, 0x03, 0xc4, 0x03, 0x00,
   0x00, 0xf8, 0x80, 0x07, 0x00, 0x00, 0xfe, 0x1b, 0xf3, 0x81, 0xe4, 0x03,
   0x00, 0x00, 0xf8, 0x80, 0x03, 0x00, 0xc0, 0xdf, 0x00, 0x00, 0x00, 0xf0,
   0x00, 0x00, 0x00, 0xf8, 0x80, 0x03, 0x00, 0xc0, 0x77, 0x00, 0x00, 0xd0,
   0xfe, 0x00, 0x00, 0x00, 0xf8, 0xc0, 0x00, 0x00, 0xe0, 0x03, 0x90, 0xf6,
   0xff, 0x3f, 0x00, 0x00, 0x00, 0xf8, 0xc0, 0x00, 0x00, 0xc0, 0xc0, 0x3f,
   0x18, 0x00, 0x00, 0x00, 0x00, 0x00, 0xf8, 0xc0, 0x00, 0x00, 0x40, 0xf0,
   0x03, 0x08, 0x00, 0x00, 0x00, 0x00, 0x00, 0xf8, 0x80, 0x00, 0x00, 0xf0,
   0x39, 0x00, 0x08, 0x00, 0x00, 0x00, 0x00, 0x00, 0xf8, 0x00, 0x00, 0x00,
   0xf8, 0x0e, 0x00, 0x08, 0x00, 0x00, 0x00, 0x00, 0x00, 0xf8, 0x00, 0x00,
   0x00, 0xd8, 0x0e, 0x00, 0x08, 0x00, 0x00, 0x00, 0x00, 0x00, 0xf8, 0x00,
   0x00, 0x00, 0xd8, 0x0f, 0x00, 0x08, 0x00, 0x00, 0x00, 0x00, 0x00, 0xf8,
   0x00, 0x00, 0x00, 0xd8, 0x0f, 0x00, 0x08, 0x00, 0x00, 0x00, 0x00, 0x00,
   0xf8, 0x00, 0x00, 0x00, 0x98, 0x0f, 0x00, 0x00, 0x00, 0x00, 0x00, 0x00,
   0x00, 0xf8, 0x00, 0x00, 0x00, 0x18, 0x1d, 0x00, 0x00, 0x00, 0x00, 0x00,
   0x00, 0x00, 0xf8, 0x00, 0x00, 0x00, 0x10, 0xde, 0xff, 0xff, 0xfb, 0xff,
   0x01, 0x00, 0x00, 0xf8, 0x00, 0x00, 0x00, 0xb0, 0x0e, 0xff, 0x0f, 0xff,
   0xf7, 0x07, 0x00, 0x00, 0xf8, 0x00, 0x00, 0x00, 0x60, 0x0c, 0x00, 0x02,
   0xf3, 0xff, 0x1f, 0x00, 0x00, 0xf8, 0x00, 0x00, 0x00, 0xe0, 0xff, 0xff,
   0xe8, 0x20, 0x18, 0x78, 0x00, 0x00, 0xf8, 0x00, 0x00, 0x00, 0xc0, 0xff,
   0x2f, 0x60, 0x23, 0x18, 0x7c, 0x00, 0x00, 0xf8, 0x00, 0x00, 0x00, 0xc0,
   0xff, 0x63, 0x30, 0x63, 0x1c, 0xff, 0x00, 0x00, 0xf8, 0x00, 0x00, 0x00,
   0x00, 0xfc, 0xff, 0xde, 0xbe, 0xcf, 0xf8, 0x03, 0x00, 0xf8, 0x00, 0x00,
   0x00, 0x00, 0x80, 0xff, 0xff, 0xff, 0xff, 0xf1, 0x03, 0x00, 0xf8, 0x00,
   0x00, 0x00, 0x00, 0x00, 0x00, 0x38, 0xfd, 0xff, 0xf1, 0x03, 0x00, 0xf8,
   0x00, 0x00, 0x00, 0x00, 0x00, 0x00, 0x18, 0x00, 0x00, 0xc3, 0x07, 0x00,
   0xf8, 0x00, 0x00, 0x00, 0x00, 0x00, 0x00, 0x18, 0x00, 0x00, 0xc7, 0x07,
   0x00, 0xf8, 0x00, 0x00, 0x00, 0x00, 0x00, 0x00, 0x18, 0x00, 0x00, 0xc7,
   0x07, 0x00, 0xf8, 0x00, 0x00, 0x00, 0x00, 0x00, 0x00, 0x18, 0x00, 0x00,
   0xc6, 0x07, 0x00, 0xf8, 0x00, 0x00, 0x00, 0x00, 0x00, 0x00, 0x18, 0x00,
   0x00, 0xc6, 0x07, 0x00, 0xf8, 0x00, 0x00, 0x00, 0x00, 0x00, 0x00, 0x18,
   0x00, 0x00, 0x86, 0x07, 0x00, 0xf8, 0x00, 0x00, 0x00, 0x00, 0x00, 0x00,
   0x18, 0x00, 0x00, 0xce, 0x07, 0x00, 0xf8, 0x00, 0x00, 0x00, 0x00, 0x00,
   0x00, 0x18, 0x00, 0x00, 0xc7, 0x07, 0x00, 0xf8, 0x00, 0x00, 0x00, 0x00,
   0x00, 0x00, 0x18, 0x00, 0x00, 0xed, 0x03, 0x00, 0xf8, 0x00, 0x00, 0x00,
   0x00, 0x00, 0x00, 0x00, 0x00, 0xf0, 0xa7, 0x03, 0x00, 0xf8, 0x00, 0x00,
   0x00, 0x00, 0x00, 0x00, 0xf8, 0xff, 0xff, 0xc7, 0x03, 0x00, 0xf8, 0x00,
   0x00, 0x00, 0x00, 0x00, 0xe0, 0xff, 0xff, 0x7f, 0xc6, 0x03, 0x00, 0xf8,
   0x00, 0x00, 0x00, 0x00, 0x00, 0xff, 0xe7, 0x1f, 0x00, 0xcc, 0x01, 0x00,
   0xf8, 0x00, 0x00, 0x00, 0x00, 0xe0, 0xff, 0xff, 0x01, 0x00, 0xfc, 0x00,
   0x00, 0xf8, 0x00, 0x00, 0x00, 0x00, 0xf8, 0xcf, 0x01, 0xe0, 0xfb, 0x7f,
   0x00, 0x00, 0xf8, 0x00, 0x00, 0x00, 0x00, 0xbe, 0x71, 0xfc, 0xff, 0xff,
   0x3c, 0x00, 0x00, 0xf8, 0x00, 0x00, 0x00, 0x00, 0x3f, 0x62, 0xf4, 0xff,
   0xdf, 0x1f, 0x00, 0x00, 0xf8, 0x00, 0x00, 0x00, 0x80, 0x0f, 0x77, 0xf6,
   0xff, 0xff, 0x0f, 0x00, 0x00, 0xf8, 0x00, 0x00, 0x00, 0xe0, 0xc8, 0xe8,
   0x1f, 0x00, 0x78, 0x00, 0x00, 0x00, 0xf8, 0x00, 0x00, 0x00, 0xf0, 0xc0,
   0x3f, 0x00, 0x00, 0x00, 0x00, 0x00, 0x00, 0xf8, 0x00, 0x00, 0x00, 0x9c,
   0xfd, 0x00, 0x00, 0x00, 0x00, 0x00, 0x00, 0x00, 0xf8, 0x00, 0x00, 0x00,
   0x1c, 0x7e, 0x00, 0x00, 0x00, 0x00, 0x00, 0x00, 0x00, 0xf8, 0x00, 0x00,
   0x00, 0x1c, 0x3e, 0x00, 0x00, 0x00, 0x00, 0x00, 0x00, 0x00, 0xf8, 0x00,
   0x00, 0x00, 0xe6, 0x1f, 0x00, 0x00, 0x00, 0x00, 0x00, 0x0c, 0x00, 0xf8,
   0x00, 0x00, 0x00, 0xe3, 0x07, 0x00, 0x00, 0x00, 0x00, 0x80, 0x1f, 0x00,
   0xf8, 0x00, 0x00, 0x80, 0xd3, 0x07, 0x00, 0x00, 0x00, 0x00, 0x80, 0x1f,
   0x00, 0xf8, 0x00, 0x00, 0xc0, 0xfc, 0x01, 0x00, 0x00, 0x00, 0x00, 0x00,
   0x1f, 0x00, 0xf8, 0x00, 0x00, 0xc0, 0xfc, 0x01, 0x00, 0x00, 0x00, 0x00,
   0x20, 0x1f, 0x00, 0xf8, 0x00, 0x00, 0xc0, 0xfc, 0x01, 0x00, 0x00, 0x00,
   0x00, 0x20, 0x3e, 0x00, 0xf8, 0x00, 0x00, 0x20, 0xfc, 0x00, 0x00, 0x00,
   0x00, 0x00, 0x00, 0x6c, 0x00, 0xf8, 0x00, 0x00, 0x20, 0xfe, 0x00, 0x00,
   0x00, 0x00, 0x00, 0x00, 0xcc, 0x00, 0xf8, 0x00, 0x00, 0x20, 0x7b, 0x00,
   0x00, 0x00, 0x00, 0x00, 0x00, 0xe4, 0x00, 0xf8, 0x00, 0x00, 0x30, 0x33,
   0x00, 0x00, 0x00, 0x00, 0x00, 0x40, 0xfc, 0x01, 0xf8, 0x00, 0x00, 0xb8,
   0x3b, 0x00, 0x00, 0x00, 0x00, 0x00, 0x00, 0xf8, 0x01, 0xf8, 0x00, 0x00,
   0x98, 0x3f, 0x00, 0x00, 0x00, 0x00, 0x00, 0xc0, 0xec, 0x01, 0xf8, 0x00,
   0x00, 0x98, 0x1f, 0x00, 0x00, 0x00, 0x00, 0x00, 0x80, 0xc7, 0x01, 0xf8,
   0x00, 0x00, 0x08, 0x1f, 0x00, 0x00, 0x00, 0x00, 0x00, 0x88, 0x87, 0x01,
   0xf8, 0x00, 0x00, 0x08, 0x18, 0x00, 0x00, 0x00, 0x00, 0x00, 0x8c, 0x83,
   0x01, 0xf8, 0x00, 0x00, 0x88, 0x1f, 0x00, 0x00, 0x00, 0x00, 0x00, 0x8f,
   0x9f, 0x03, 0xf8, 0x00, 0x00, 0xcc, 0x1f, 0x00, 0x00, 0x00, 0x00, 0x00,
   0x8f, 0xa3, 0x03, 0xf8, 0x00, 0x00, 0x0c, 0x1f, 0x00, 0x00, 0x00, 0x00,
   0x00, 0x8e, 0xc3, 0x03, 0xf8, 0x00, 0x00, 0xcc, 0x1f, 0x00, 0x00, 0x00,
   0x00, 0x00, 0x0e, 0xe6, 0x03, 0xf8, 0x00, 0x00, 0xcc, 0x1f, 0x00, 0x00,
   0x00, 0x00, 0x00, 0x0e, 0xe6, 0x03, 0xf8, 0x00, 0x00, 0xcc, 0x1f, 0x00,
   0x00, 0x00, 0x00, 0x00, 0x0e, 0xe6, 0x03, 0xf8, 0x00, 0x00, 0xc4, 0x1f,
   0x00, 0x00, 0x00, 0x00, 0x00, 0x1c, 0xee, 0x03, 0xf8, 0x00, 0x00, 0x84,
   0x1d, 0x00, 0x00, 0x00, 0x00, 0x00, 0x1c, 0x2e, 0x02, 0xf8, 0x00, 0x00,
   0x84, 0x1f, 0x00, 0x00, 0x00, 0x00, 0x00, 0x1c, 0x2e, 0x02, 0xf8, 0x00,
   0x00, 0x8c, 0x1c, 0x00, 0x00, 0x00, 0x00, 0x00, 0x1c, 0x66, 0x02, 0xf8,
   0x00, 0x00, 0xcc, 0x1c, 0x00, 0x00, 0x00, 0x00, 0x00, 0x1c, 0xe6, 0x03,
   0xf8, 0x00, 0x00, 0x0c, 0x1e, 0x00, 0x00, 0x00, 0x00, 0x00, 0x0e, 0x24,
   0x03, 0xf8, 0x00, 0x00, 0x8c, 0x1f, 0x00, 0x00, 0x00, 0x00, 0x00, 0x0e,
   0xf2, 0x03, 0xf8, 0x00, 0x00, 0x98, 0x1f, 0x00, 0x00, 0x00, 0x00, 0x00,
   0x0e, 0x40, 0x01, 0xf8, 0x00, 0x00, 0x18, 0x3d, 0x00, 0x00, 0x00, 0x00,
   0x00, 0x0f, 0xea, 0x01, 0xf8, 0x00, 0x00, 0x18, 0x3e, 0x00, 0x00, 0x00,
   0x00, 0x00, 0x07, 0x83, 0x01, 0xf8, 0x00, 0x00, 0x38, 0x3c, 0x00, 0x00,
   0x00, 0x00, 0x00, 0x07, 0xe7, 0x01, 0xf8, 0x00, 0x00, 0x38, 0x74, 0x00,
   0x00, 0x00, 0x00, 0x00, 0x87, 0xff, 0x01, 0xf8, 0x00, 0x00, 0x38, 0xfc,
   0x01, 0x00, 0x00, 0x00, 0x80, 0x83, 0xe2, 0x00, 0xf8, 0x00, 0x00, 0x38,
   0xfc, 0x01, 0x00, 0x00, 0x00, 0xc0, 0xc3, 0xe5, 0x00, 0xf8, 0x00, 0x00,
   0x38, 0xfc, 0x01, 0x00, 0x00, 0x00, 0xc0, 0xe1, 0xf1, 0x00, 0xf8, 0x00,
   0x00, 0x60, 0xe8, 0x07, 0x00, 0x00, 0x00, 0xf0, 0xf1, 0x70, 0x00, 0xf8,
   0x00, 0x00, 0x60, 0xf8, 0x07, 0x00, 0x00, 0x00, 0xf0, 0xe0, 0x70, 0x00,
   0xf8, 0x00, 0x00, 0xc0, 0xf0, 0x3f, 0x00, 0x00, 0x00, 0xfc, 0x38, 0x39,
   0x00, 0xf8, 0x00, 0x00, 0xc0, 0xc3, 0xfe, 0x00, 0x00, 0x80, 0x1f, 0x18,
   0x3c, 0x00, 0xf8, 0x00, 0x00, 0xc0, 0x03, 0xff, 0x07, 0x00, 0xe0, 0x0f,
   0x18, 0x1c, 0x00, 0xf8, 0x00, 0x00, 0x80, 0x03, 0xa6, 0x0f, 0x00, 0xe0,
   0x0f, 0x1d, 0x1e, 0x00, 0xf8, 0x00, 0x00, 0x00, 0x0f, 0xff, 0xfe, 0xff,
   0x7f, 0xc7, 0x87, 0x0f, 0x00, 0xf8, 0x00, 0x00, 0x00, 0x1e, 0xf0, 0x5b,
   0xfe, 0x19, 0xc1, 0xb0, 0x03, 0x00, 0xf8, 0x00, 0x00, 0x00, 0x3c, 0xc0,
   0x43, 0x44, 0x99, 0xc1, 0xa0, 0x03, 0x00, 0xf8, 0x00, 0x00, 0x00, 0x78,
   0x00, 0xdf, 0xff, 0x7d, 0x6f, 0xe9, 0x01, 0x00, 0xf8, 0x00, 0x00, 0x00,
   0xf8, 0x40, 0xde, 0xff, 0xdd, 0xef, 0xf8, 0x00, 0x00, 0xf8, 0x00, 0x00,
   0x00, 0xe0, 0xff, 0x00, 0x00, 0xc4, 0x01, 0x3f, 0x00, 0x00, 0xf8, 0x00,
   0x00, 0x00, 0xc0, 0xbf, 0x1f, 0x00, 0xff, 0xe0, 0x0f, 0x00, 0x00, 0xf8,
   0x00, 0x00, 0x00, 0x80, 0x7f, 0xff, 0x87, 0x7f, 0xfc, 0x07, 0x00, 0x00,
   0xf8, 0x00, 0x00, 0x00, 0x00, 0xbc, 0xf8, 0x3f, 0x07, 0xf8, 0x01, 0x00,
   0x00, 0xf8, 0x00, 0x00, 0x00, 0x00, 0xf8, 0xf8, 0x1f, 0x00, 0xfc, 0x00,
   0x00, 0x00, 0xf8, 0x00, 0x00, 0x00, 0x00, 0xf0, 0x78, 0x24, 0xc4, 0x3f,
   0x00, 0x00, 0x00, 0xf8, 0x00, 0x00, 0x00, 0x00, 0x00, 0x7f, 0xf7, 0xff,
   0x03, 0x00, 0x00, 0x00, 0xf8, 0x00, 0x00, 0x00, 0x00, 0x00, 0xfc, 0xf5,
   0xff, 0x01, 0x00, 0x00, 0x00, 0xf8, 0x00, 0x00, 0x00, 0x00, 0x00, 0x80,
   0xff, 0x07, 0x00, 0x00, 0x00, 0x00, 0xf8, 0x00, 0x00, 0x00, 0x00, 0x00,
   0x00, 0x00, 0x00, 0x00, 0x00, 0x00, 0x00, 0xf8, 0x00, 0x00, 0x00, 0x00,
   0x00, 0x00, 0x00, 0x00, 0x00, 0x00, 0x00, 0x00, 0xf8, 0x00, 0x00, 0x00,
   0x00, 0x00, 0x00, 0x00, 0x00, 0x00, 0x00, 0x00, 0x00, 0xf8, 0x00, 0x00,
   0x00, 0x00, 0x00, 0x00, 0x00, 0x00, 0x00, 0x00, 0x00, 0x00, 0xf8, 0x00,
   0x00, 0x00, 0x00, 0x00, 0x00, 0x00, 0x00, 0x00, 0x00, 0x00, 0x00, 0xf8,
   0x00, 0x00, 0x00, 0x00, 0x00, 0x00, 0x00, 0x00, 0x00, 0x00, 0x00, 0x00,
   0xf8, 0x00, 0x00, 0x00, 0x00, 0x00, 0x00, 0x00, 0x00, 0x00, 0x00, 0x00,
   0x00, 0xf8, 0x00, 0x00, 0x00, 0x00, 0x00, 0x00, 0x00, 0x00, 0x00, 0x00,
   0x00, 0x00, 0xf8, 0x00, 0x00, 0x00, 0x00, 0x00, 0x00, 0x00, 0x00, 0x00,
   0x00, 0x00, 0x00, 0xf8, 0x00, 0x00, 0x00, 0x00, 0x00, 0x00, 0x00, 0x00,
   0x00, 0x00, 0x00, 0x00, 0xf8};
